solid OpenSCAD_Model
  facet normal -1 0 0
    outer loop
      vertex -51.5 51.5 -6
      vertex -51.5 0 -6
      vertex -51.5 51.5 -1.59999
    endloop
  endfacet
  facet normal -1 0 0
    outer loop
      vertex -51.5 55.9 -2.59999
      vertex -51.5 57.1 -5.59999
      vertex -51.5 55.9 -3.39999
    endloop
  endfacet
  facet normal -1 0 0
    outer loop
      vertex -51.5 53.9 -5.59999
      vertex -51.5 55.9 -3.39999
      vertex -51.5 57.1 -5.59999
    endloop
  endfacet
  facet normal -1 0 0
    outer loop
      vertex -51.5 55.9 -3.39999
      vertex -51.5 53.9 -5.59999
      vertex -51.5 53.9 -4.39999
    endloop
  endfacet
  facet normal -1 0 0
    outer loop
      vertex -51.5 57.1 -5.59999
      vertex -51.5 55.9 -2.59999
      vertex -51.5 57.1 0
    endloop
  endfacet
  facet normal -1 0 0
    outer loop
      vertex -51.5 53.9 -1.59999
      vertex -51.5 57.1 0
      vertex -51.5 55.9 -2.59999
    endloop
  endfacet
  facet normal -1 0 0
    outer loop
      vertex -51.5 51.5 -1.59999
      vertex -51.5 57.1 0
      vertex -51.5 53.9 -1.59999
    endloop
  endfacet
  facet normal -1 0 0
    outer loop
      vertex -51.5 0 0
      vertex -51.5 51.5 -1.59999
      vertex -51.5 0 -6
    endloop
  endfacet
  facet normal -1 0 0
    outer loop
      vertex -51.5 51.5 -1.59999
      vertex -51.5 0 0
      vertex -51.5 57.1 0
    endloop
  endfacet
  facet normal -1 0 0
    outer loop
      vertex -51.5 0 -8
      vertex -51.5 -4 -6
      vertex -51.5 0 -6
    endloop
  endfacet
  facet normal -1 0 0
    outer loop
      vertex -51.5 -6 -2
      vertex -51.5 -4 -4
      vertex -51.5 -4 -6
    endloop
  endfacet
  facet normal -1 0 0
    outer loop
      vertex -51.5 -6 -8
      vertex -51.5 -4 -6
      vertex -51.5 0 -8
    endloop
  endfacet
  facet normal -1 0 0
    outer loop
      vertex -51.5 -6 -2
      vertex -51.5 -4 -6
      vertex -51.5 -6 -8
    endloop
  endfacet
  facet normal -1 0 0
    outer loop
      vertex -51.5 -4 -4
      vertex -51.5 -6 -2
      vertex -51.5 -4 -2
    endloop
  endfacet
  facet normal -1 -0 0
    outer loop
      vertex -51.5 -2 -3
      vertex -51.5 -4 -4
      vertex -51.5 -4 -2
    endloop
  endfacet
  facet normal 0 0 -1
    outer loop
      vertex 0 -6 -8
      vertex -49.5 2 -8
      vertex 0 2 -8
    endloop
  endfacet
  facet normal 0 0 -1
    outer loop
      vertex -51.5 -6 -8
      vertex -49.5 2 -8
      vertex 0 -6 -8
    endloop
  endfacet
  facet normal 0 0 -1
    outer loop
      vertex -51.5 0 -8
      vertex -49.5 2 -8
      vertex -51.5 -6 -8
    endloop
  endfacet
  facet normal 0 0 -1
    outer loop
      vertex -57.5 0 -8
      vertex -49.5 2 -8
      vertex -51.5 0 -8
    endloop
  endfacet
  facet normal -0 0 -1
    outer loop
      vertex -49.5 2 -8
      vertex -57.5 0 -8
      vertex -57.5 51.5 -8
    endloop
  endfacet
  facet normal 0 0 -1
    outer loop
      vertex -49.5 2 -8
      vertex -57.5 51.5 -8
      vertex -49.5 51.5 -8
    endloop
  endfacet
  facet normal 0 0 -1
    outer loop
      vertex 0 2 -8
      vertex -5.58333 25.75 -8
      vertex 0 51.5 -8
    endloop
  endfacet
  facet normal 0 0 -1
    outer loop
      vertex 0 2 -8
      vertex -5.68531 24.7797 -8
      vertex -5.58333 25.75 -8
    endloop
  endfacet
  facet normal 0 0 -1
    outer loop
      vertex 0 2 -8
      vertex -6.02402 21.5571 -8
      vertex -5.68531 24.7797 -8
    endloop
  endfacet
  facet normal 0 0 -1
    outer loop
      vertex 0 2 -8
      vertex -7.02536 18.4753 -8
      vertex -6.02402 21.5571 -8
    endloop
  endfacet
  facet normal 0 0 -1
    outer loop
      vertex 0 2 -8
      vertex -7.32683 17.5475 -8
      vertex -7.02536 18.4753 -8
    endloop
  endfacet
  facet normal 0 0 -1
    outer loop
      vertex 0 2 -8
      vertex -8.94702 14.7412 -8
      vertex -7.32683 17.5475 -8
    endloop
  endfacet
  facet normal 0 0 -1
    outer loop
      vertex 0 2 -8
      vertex -9.43482 13.8963 -8
      vertex -8.94702 14.7412 -8
    endloop
  endfacet
  facet normal 0 0 -1
    outer loop
      vertex 0 2 -8
      vertex -10.0876 13.1713 -8
      vertex -9.43482 13.8963 -8
    endloop
  endfacet
  facet normal 0 0 -1
    outer loop
      vertex 0 2 -8
      vertex -12.2559 10.7632 -8
      vertex -10.0876 13.1713 -8
    endloop
  endfacet
  facet normal 0 0 -1
    outer loop
      vertex 0 2 -8
      vertex -14.8774 8.8586 -8
      vertex -12.2559 10.7632 -8
    endloop
  endfacet
  facet normal 0 0 -1
    outer loop
      vertex 0 2 -8
      vertex -15.6667 8.28515 -8
      vertex -14.8774 8.8586 -8
    endloop
  endfacet
  facet normal 0 0 -1
    outer loop
      vertex 0 2 -8
      vertex -18.6269 6.96717 -8
      vertex -15.6667 8.28515 -8
    endloop
  endfacet
  facet normal 0 0 -1
    outer loop
      vertex 0 2 -8
      vertex -19.5182 6.57036 -8
      vertex -18.6269 6.96717 -8
    endloop
  endfacet
  facet normal 0 0 -1
    outer loop
      vertex 0 2 -8
      vertex -20.4724 6.36752 -8
      vertex -19.5182 6.57036 -8
    endloop
  endfacet
  facet normal 0 0 -1
    outer loop
      vertex 0 2 -8
      vertex -23.642 5.69381 -8
      vertex -20.4724 6.36752 -8
    endloop
  endfacet
  facet normal 0 0 -1
    outer loop
      vertex -49.5 2 -8
      vertex -23.642 5.69381 -8
      vertex 0 2 -8
    endloop
  endfacet
  facet normal 0 0 -1
    outer loop
      vertex -49.5 2 -8
      vertex -36.6226 8.8586 -8
      vertex -35.8333 8.28515 -8
    endloop
  endfacet
  facet normal -0 0 -1
    outer loop
      vertex -45.8147 24.7797 -8
      vertex -49.5 2 -8
      vertex -45.9167 25.75 -8
    endloop
  endfacet
  facet normal -0 0 -1
    outer loop
      vertex -45.476 21.5571 -8
      vertex -49.5 2 -8
      vertex -45.8147 24.7797 -8
    endloop
  endfacet
  facet normal -0 0 -1
    outer loop
      vertex -44.4746 18.4753 -8
      vertex -49.5 2 -8
      vertex -45.476 21.5571 -8
    endloop
  endfacet
  facet normal -0 0 -1
    outer loop
      vertex -44.1732 17.5475 -8
      vertex -49.5 2 -8
      vertex -44.4746 18.4753 -8
    endloop
  endfacet
  facet normal -0 0 -1
    outer loop
      vertex -42.553 14.7412 -8
      vertex -49.5 2 -8
      vertex -44.1732 17.5475 -8
    endloop
  endfacet
  facet normal -0 0 -1
    outer loop
      vertex -42.0652 13.8963 -8
      vertex -49.5 2 -8
      vertex -42.553 14.7412 -8
    endloop
  endfacet
  facet normal -0 0 -1
    outer loop
      vertex -41.4124 13.1713 -8
      vertex -49.5 2 -8
      vertex -42.0652 13.8963 -8
    endloop
  endfacet
  facet normal -0 0 -1
    outer loop
      vertex -39.2441 10.7632 -8
      vertex -49.5 2 -8
      vertex -41.4124 13.1713 -8
    endloop
  endfacet
  facet normal -0 0 -1
    outer loop
      vertex -36.6226 8.8586 -8
      vertex -49.5 2 -8
      vertex -39.2441 10.7632 -8
    endloop
  endfacet
  facet normal -0 0 -1
    outer loop
      vertex -32.8731 6.96717 -8
      vertex -49.5 2 -8
      vertex -35.8333 8.28515 -8
    endloop
  endfacet
  facet normal -0 0 -1
    outer loop
      vertex -31.9818 6.57036 -8
      vertex -49.5 2 -8
      vertex -32.8731 6.96717 -8
    endloop
  endfacet
  facet normal -0 0 -1
    outer loop
      vertex -31.0276 6.36752 -8
      vertex -49.5 2 -8
      vertex -31.9818 6.57036 -8
    endloop
  endfacet
  facet normal -0 0 -1
    outer loop
      vertex -27.858 5.69381 -8
      vertex -49.5 2 -8
      vertex -31.0276 6.36752 -8
    endloop
  endfacet
  facet normal -0 0 -1
    outer loop
      vertex -23.642 5.69381 -8
      vertex -49.5 2 -8
      vertex -27.858 5.69381 -8
    endloop
  endfacet
  facet normal 0 0 -1
    outer loop
      vertex -5.68531 26.7203 -8
      vertex 0 51.5 -8
      vertex -5.58333 25.75 -8
    endloop
  endfacet
  facet normal 0 0 -1
    outer loop
      vertex -6.02402 29.9429 -8
      vertex 0 51.5 -8
      vertex -5.68531 26.7203 -8
    endloop
  endfacet
  facet normal 0 0 -1
    outer loop
      vertex -7.02536 33.0247 -8
      vertex 0 51.5 -8
      vertex -6.02402 29.9429 -8
    endloop
  endfacet
  facet normal 0 0 -1
    outer loop
      vertex -7.32683 33.9525 -8
      vertex 0 51.5 -8
      vertex -7.02536 33.0247 -8
    endloop
  endfacet
  facet normal 0 0 -1
    outer loop
      vertex -8.94702 36.7588 -8
      vertex 0 51.5 -8
      vertex -7.32683 33.9525 -8
    endloop
  endfacet
  facet normal 0 0 -1
    outer loop
      vertex -9.43482 37.6037 -8
      vertex 0 51.5 -8
      vertex -8.94702 36.7588 -8
    endloop
  endfacet
  facet normal 0 0 -1
    outer loop
      vertex -10.0876 38.3287 -8
      vertex 0 51.5 -8
      vertex -9.43482 37.6037 -8
    endloop
  endfacet
  facet normal 0 0 -1
    outer loop
      vertex -12.2559 40.7368 -8
      vertex 0 51.5 -8
      vertex -10.0876 38.3287 -8
    endloop
  endfacet
  facet normal 0 0 -1
    outer loop
      vertex -14.8774 42.6414 -8
      vertex 0 51.5 -8
      vertex -12.2559 40.7368 -8
    endloop
  endfacet
  facet normal 0 0 -1
    outer loop
      vertex -15.6667 43.2148 -8
      vertex 0 51.5 -8
      vertex -14.8774 42.6414 -8
    endloop
  endfacet
  facet normal 0 0 -1
    outer loop
      vertex -18.6269 44.5328 -8
      vertex 0 51.5 -8
      vertex -15.6667 43.2148 -8
    endloop
  endfacet
  facet normal 0 0 -1
    outer loop
      vertex -19.5182 44.9296 -8
      vertex 0 51.5 -8
      vertex -18.6269 44.5328 -8
    endloop
  endfacet
  facet normal 0 0 -1
    outer loop
      vertex -20.4724 45.1325 -8
      vertex 0 51.5 -8
      vertex -19.5182 44.9296 -8
    endloop
  endfacet
  facet normal 0 0 -1
    outer loop
      vertex -23.642 45.8062 -8
      vertex 0 51.5 -8
      vertex -20.4724 45.1325 -8
    endloop
  endfacet
  facet normal 0 0 -1
    outer loop
      vertex -49.5 51.5 -8
      vertex -23.642 45.8062 -8
      vertex -27.858 45.8062 -8
    endloop
  endfacet
  facet normal 0 0 -1
    outer loop
      vertex -49.5 51.5 -8
      vertex -45.9167 25.75 -8
      vertex -49.5 2 -8
    endloop
  endfacet
  facet normal 0 0 -1
    outer loop
      vertex -45.9167 25.75 -8
      vertex -49.5 51.5 -8
      vertex -45.8147 26.7203 -8
    endloop
  endfacet
  facet normal 0 0 -1
    outer loop
      vertex -23.642 45.8062 -8
      vertex -49.5 51.5 -8
      vertex 0 51.5 -8
    endloop
  endfacet
  facet normal 0 0 -1
    outer loop
      vertex -31.0276 45.1325 -8
      vertex -49.5 51.5 -8
      vertex -27.858 45.8062 -8
    endloop
  endfacet
  facet normal 0 0 -1
    outer loop
      vertex -31.9818 44.9296 -8
      vertex -49.5 51.5 -8
      vertex -31.0276 45.1325 -8
    endloop
  endfacet
  facet normal 0 0 -1
    outer loop
      vertex -32.8731 44.5328 -8
      vertex -49.5 51.5 -8
      vertex -31.9818 44.9296 -8
    endloop
  endfacet
  facet normal 0 0 -1
    outer loop
      vertex -35.8333 43.2148 -8
      vertex -49.5 51.5 -8
      vertex -32.8731 44.5328 -8
    endloop
  endfacet
  facet normal 0 0 -1
    outer loop
      vertex -36.6226 42.6414 -8
      vertex -49.5 51.5 -8
      vertex -35.8333 43.2148 -8
    endloop
  endfacet
  facet normal 0 0 -1
    outer loop
      vertex -39.2441 40.7368 -8
      vertex -49.5 51.5 -8
      vertex -36.6226 42.6414 -8
    endloop
  endfacet
  facet normal 0 0 -1
    outer loop
      vertex -41.4124 38.3287 -8
      vertex -49.5 51.5 -8
      vertex -39.2441 40.7368 -8
    endloop
  endfacet
  facet normal 0 0 -1
    outer loop
      vertex -42.0652 37.6037 -8
      vertex -49.5 51.5 -8
      vertex -41.4124 38.3287 -8
    endloop
  endfacet
  facet normal 0 0 -1
    outer loop
      vertex -42.553 36.7588 -8
      vertex -49.5 51.5 -8
      vertex -42.0652 37.6037 -8
    endloop
  endfacet
  facet normal 0 0 -1
    outer loop
      vertex -44.1732 33.9525 -8
      vertex -49.5 51.5 -8
      vertex -42.553 36.7588 -8
    endloop
  endfacet
  facet normal 0 0 -1
    outer loop
      vertex -44.4746 33.0247 -8
      vertex -49.5 51.5 -8
      vertex -44.1732 33.9525 -8
    endloop
  endfacet
  facet normal 0 0 -1
    outer loop
      vertex -45.476 29.9429 -8
      vertex -49.5 51.5 -8
      vertex -44.4746 33.0247 -8
    endloop
  endfacet
  facet normal 0 0 -1
    outer loop
      vertex -45.8147 26.7203 -8
      vertex -49.5 51.5 -8
      vertex -45.476 29.9429 -8
    endloop
  endfacet
  facet normal 0 0 1
    outer loop
      vertex 0 57.1 0
      vertex -2 49.5 0
      vertex 0 51.5 0
    endloop
  endfacet
  facet normal 0 0 1
    outer loop
      vertex 0 57.1 0
      vertex -49.5 49.5 0
      vertex -2 49.5 0
    endloop
  endfacet
  facet normal 0 0 1
    outer loop
      vertex -51.5 0 0
      vertex -49.5 49.5 0
      vertex -51.5 57.1 0
    endloop
  endfacet
  facet normal -0 0 1
    outer loop
      vertex -51.5 57.1 0
      vertex -49.5 49.5 0
      vertex 0 57.1 0
    endloop
  endfacet
  facet normal 0 0 1
    outer loop
      vertex -2 49.5 0
      vertex 5.59999 51.5 0
      vertex 0 51.5 0
    endloop
  endfacet
  facet normal 0 0 1
    outer loop
      vertex 5.59999 51.5 0
      vertex -2 49.5 0
      vertex 5.59999 0 0
    endloop
  endfacet
  facet normal -0 0 1
    outer loop
      vertex -2 2 0
      vertex 5.59999 0 0
      vertex -2 49.5 0
    endloop
  endfacet
  facet normal 0 0 1
    outer loop
      vertex -51.5 0 0
      vertex -2 2 0
      vertex -49.5 2 0
    endloop
  endfacet
  facet normal 0 0 1
    outer loop
      vertex -2 2 0
      vertex -51.5 0 0
      vertex 5.59999 0 0
    endloop
  endfacet
  facet normal 0 0 1
    outer loop
      vertex -49.5 49.5 0
      vertex -51.5 0 0
      vertex -49.5 2 0
    endloop
  endfacet
  facet normal 1 0 0
    outer loop
      vertex 0 -4 -2
      vertex 0 -4 -4
      vertex 0 -2 -3
    endloop
  endfacet
  facet normal 1 -0 0
    outer loop
      vertex 0 -6 -2
      vertex 0 -4 -4
      vertex 0 -4 -2
    endloop
  endfacet
  facet normal 1 0 0
    outer loop
      vertex 0 -4 -4
      vertex 0 -6 -2
      vertex 0 -4 -6
    endloop
  endfacet
  facet normal 1 0 0
    outer loop
      vertex 0 51.5 -1.59999
      vertex 0 2 -8
      vertex 0 51.5 -8
    endloop
  endfacet
  facet normal 1 -0 0
    outer loop
      vertex 0 0 -1.59999
      vertex 0 2 -8
      vertex 0 51.5 -1.59999
    endloop
  endfacet
  facet normal 1 -0 0
    outer loop
      vertex 0 0 -6
      vertex 0 2 -8
      vertex 0 0 -1.59999
    endloop
  endfacet
  facet normal 1 -0 0
    outer loop
      vertex 0 -4 -6
      vertex 0 2 -8
      vertex 0 0 -6
    endloop
  endfacet
  facet normal 1 0 0
    outer loop
      vertex 0 -4 -6
      vertex 0 -6 -8
      vertex 0 2 -8
    endloop
  endfacet
  facet normal 1 0 0
    outer loop
      vertex 0 -6 -8
      vertex 0 -4 -6
      vertex 0 -6 -2
    endloop
  endfacet
  facet normal 1 0 0
    outer loop
      vertex 0 57.1 0
      vertex 0 55.9 -2.59999
      vertex 0 57.1 -5.59999
    endloop
  endfacet
  facet normal 1 0 0
    outer loop
      vertex 0 57.1 0
      vertex 0 53.9 -1.59999
      vertex 0 55.9 -2.59999
    endloop
  endfacet
  facet normal 1 -0 0
    outer loop
      vertex 0 51.5 0
      vertex 0 53.9 -1.59999
      vertex 0 57.1 0
    endloop
  endfacet
  facet normal 1 0 0
    outer loop
      vertex 0 53.9 -1.59999
      vertex 0 51.5 0
      vertex 0 51.5 -1.59999
    endloop
  endfacet
  facet normal 1 -0 0
    outer loop
      vertex 0 55.9 -3.39999
      vertex 0 57.1 -5.59999
      vertex 0 55.9 -2.59999
    endloop
  endfacet
  facet normal 1 0 0
    outer loop
      vertex 0 53.9 -5.59999
      vertex 0 55.9 -3.39999
      vertex 0 53.9 -4.39999
    endloop
  endfacet
  facet normal 1 0 0
    outer loop
      vertex 0 55.9 -3.39999
      vertex 0 53.9 -5.59999
      vertex 0 57.1 -5.59999
    endloop
  endfacet
  facet normal 0 1 -0
    outer loop
      vertex -49.5 51.5 -8
      vertex -51.5 51.5 -1.59999
      vertex 0 51.5 -1.59999
    endloop
  endfacet
  facet normal 0 1 0
    outer loop
      vertex -51.5 51.5 -1.59999
      vertex -49.5 51.5 -8
      vertex -51.5 51.5 -6
    endloop
  endfacet
  facet normal 0 1 0
    outer loop
      vertex -49.5 51.5 -8
      vertex 0 51.5 -1.59999
      vertex 0 51.5 -8
    endloop
  endfacet
  facet normal 0 1 0
    outer loop
      vertex -55.5 51.5 -4
      vertex -55.5 51.5 -2
      vertex -53.5 51.5 -3
    endloop
  endfacet
  facet normal 0 1 0
    outer loop
      vertex -55.5 51.5 -2
      vertex -55.5 51.5 -4
      vertex -57.5 51.5 -2
    endloop
  endfacet
  facet normal 0 1 -0
    outer loop
      vertex -55.5 51.5 -6
      vertex -57.5 51.5 -2
      vertex -55.5 51.5 -4
    endloop
  endfacet
  facet normal 0 1 0
    outer loop
      vertex -51.5 51.5 -6
      vertex -49.5 51.5 -8
      vertex -55.5 51.5 -6
    endloop
  endfacet
  facet normal 0 1 0
    outer loop
      vertex -55.5 51.5 -6
      vertex -57.5 51.5 -8
      vertex -57.5 51.5 -2
    endloop
  endfacet
  facet normal 0 1 0
    outer loop
      vertex -57.5 51.5 -8
      vertex -55.5 51.5 -6
      vertex -49.5 51.5 -8
    endloop
  endfacet
  facet normal 0 -1 0
    outer loop
      vertex -51.5 0 0
      vertex 0 0 -1.59999
      vertex 5.59999 0 0
    endloop
  endfacet
  facet normal 0 -1 0
    outer loop
      vertex -51.5 0 -6
      vertex 0 0 -1.59999
      vertex -51.5 0 0
    endloop
  endfacet
  facet normal 0 -1 -0
    outer loop
      vertex 0 0 -1.59999
      vertex -51.5 0 -6
      vertex 0 0 -6
    endloop
  endfacet
  facet normal 0 -1 0
    outer loop
      vertex 2.39999 0 -1.59999
      vertex 5.59999 0 0
      vertex 0 0 -1.59999
    endloop
  endfacet
  facet normal 0 -1 0
    outer loop
      vertex 4.39999 0 -2.59999
      vertex 5.59999 0 0
      vertex 2.39999 0 -1.59999
    endloop
  endfacet
  facet normal 0 -1 0
    outer loop
      vertex 5.59999 0 -5.59999
      vertex 4.39999 0 -2.59999
      vertex 4.39999 0 -3.39999
    endloop
  endfacet
  facet normal 0 -1 0
    outer loop
      vertex 2.39999 0 -5.59999
      vertex 4.39999 0 -3.39999
      vertex 2.39999 0 -4.39999
    endloop
  endfacet
  facet normal 0 -1 0
    outer loop
      vertex 4.39999 0 -2.59999
      vertex 5.59999 0 -5.59999
      vertex 5.59999 0 0
    endloop
  endfacet
  facet normal 0 -1 0
    outer loop
      vertex 5.59999 0 -5.59999
      vertex 4.39999 0 -3.39999
      vertex 2.39999 0 -5.59999
    endloop
  endfacet
  facet normal 0 -1 0
    outer loop
      vertex -55.5 0 -4
      vertex -55.5 0 -2
      vertex -57.5 0 -2
    endloop
  endfacet
  facet normal 0 -1 0
    outer loop
      vertex -55.5 0 -2
      vertex -55.5 0 -4
      vertex -53.5 0 -3
    endloop
  endfacet
  facet normal 0 -1 0
    outer loop
      vertex -57.5 0 -2
      vertex -55.5 0 -6
      vertex -55.5 0 -4
    endloop
  endfacet
  facet normal 0 -1 0
    outer loop
      vertex -57.5 0 -8
      vertex -55.5 0 -6
      vertex -57.5 0 -2
    endloop
  endfacet
  facet normal 0 -1 0
    outer loop
      vertex -51.5 0 -8
      vertex -55.5 0 -6
      vertex -57.5 0 -8
    endloop
  endfacet
  facet normal 0 -1 0
    outer loop
      vertex -55.5 0 -6
      vertex -51.5 0 -8
      vertex -51.5 0 -6
    endloop
  endfacet
  facet normal 1 -0 0
    outer loop
      vertex -49.5 2 0
      vertex -49.5 49.5 -6
      vertex -49.5 49.5 0
    endloop
  endfacet
  facet normal 1 0 0
    outer loop
      vertex -49.5 49.5 -6
      vertex -49.5 2 0
      vertex -49.5 2 -6
    endloop
  endfacet
  facet normal 0 0 1
    outer loop
      vertex -2 49.5 -6
      vertex -4.58333 25.75 -6
      vertex -2 2 -6
    endloop
  endfacet
  facet normal 0 0 1
    outer loop
      vertex -2 49.5 -6
      vertex -4.93941 29.1379 -6
      vertex -4.58333 25.75 -6
    endloop
  endfacet
  facet normal 0 0 1
    outer loop
      vertex -2 49.5 -6
      vertex -5.04588 30.1508 -6
      vertex -4.93941 29.1379 -6
    endloop
  endfacet
  facet normal 0 0 1
    outer loop
      vertex -2 49.5 -6
      vertex -5.3606 31.1194 -6
      vertex -5.04588 30.1508 -6
    endloop
  endfacet
  facet normal 0 0 1
    outer loop
      vertex -2 49.5 -6
      vertex -6.41329 34.3593 -6
      vertex -5.3606 31.1194 -6
    endloop
  endfacet
  facet normal 0 0 1
    outer loop
      vertex -2 49.5 -6
      vertex -6.92253 35.2413 -6
      vertex -6.41329 34.3593 -6
    endloop
  endfacet
  facet normal 0 0 1
    outer loop
      vertex -2 49.5 -6
      vertex -8.62581 38.1915 -6
      vertex -6.92253 35.2413 -6
    endloop
  endfacet
  facet normal 0 0 1
    outer loop
      vertex -2 49.5 -6
      vertex -10.9052 40.723 -6
      vertex -8.62581 38.1915 -6
    endloop
  endfacet
  facet normal 0 0 1
    outer loop
      vertex -2 49.5 -6
      vertex -11.5867 41.4799 -6
      vertex -10.9052 40.723 -6
    endloop
  endfacet
  facet normal 0 0 1
    outer loop
      vertex -2 49.5 -6
      vertex -12.4107 42.0785 -6
      vertex -11.5867 41.4799 -6
    endloop
  endfacet
  facet normal 0 0 1
    outer loop
      vertex -2 49.5 -6
      vertex -15.1667 44.0809 -6
      vertex -12.4107 42.0785 -6
    endloop
  endfacet
  facet normal 0 0 1
    outer loop
      vertex -2 49.5 -6
      vertex -16.0971 44.4951 -6
      vertex -15.1667 44.0809 -6
    endloop
  endfacet
  facet normal 0 0 1
    outer loop
      vertex -2 49.5 -6
      vertex -19.2091 45.8807 -6
      vertex -16.0971 44.4951 -6
    endloop
  endfacet
  facet normal 0 0 1
    outer loop
      vertex -2 49.5 -6
      vertex -20.2054 46.0924 -6
      vertex -19.2091 45.8807 -6
    endloop
  endfacet
  facet normal 0 0 1
    outer loop
      vertex -2 49.5 -6
      vertex -23.5375 46.8007 -6
      vertex -20.2054 46.0924 -6
    endloop
  endfacet
  facet normal 0 0 1
    outer loop
      vertex -2 49.5 -6
      vertex -27.9625 46.8007 -6
      vertex -23.5375 46.8007 -6
    endloop
  endfacet
  facet normal 0 0 1
    outer loop
      vertex -49.5 49.5 -6
      vertex -31.2946 46.0924 -6
      vertex -27.9625 46.8007 -6
    endloop
  endfacet
  facet normal 0 0 1
    outer loop
      vertex -49.5 49.5 -6
      vertex -46.5606 29.1379 -6
      vertex -46.4541 30.1508 -6
    endloop
  endfacet
  facet normal 0 0 1
    outer loop
      vertex -46.5606 29.1379 -6
      vertex -49.5 49.5 -6
      vertex -46.9167 25.75 -6
    endloop
  endfacet
  facet normal 0 0 1
    outer loop
      vertex -46.1394 31.1194 -6
      vertex -49.5 49.5 -6
      vertex -46.4541 30.1508 -6
    endloop
  endfacet
  facet normal 0 0 1
    outer loop
      vertex -45.0867 34.3593 -6
      vertex -49.5 49.5 -6
      vertex -46.1394 31.1194 -6
    endloop
  endfacet
  facet normal 0 0 1
    outer loop
      vertex -44.5775 35.2413 -6
      vertex -49.5 49.5 -6
      vertex -45.0867 34.3593 -6
    endloop
  endfacet
  facet normal 0 0 1
    outer loop
      vertex -42.8742 38.1915 -6
      vertex -49.5 49.5 -6
      vertex -44.5775 35.2413 -6
    endloop
  endfacet
  facet normal 0 0 1
    outer loop
      vertex -40.5948 40.723 -6
      vertex -49.5 49.5 -6
      vertex -42.8742 38.1915 -6
    endloop
  endfacet
  facet normal 0 0 1
    outer loop
      vertex -39.9133 41.4799 -6
      vertex -49.5 49.5 -6
      vertex -40.5948 40.723 -6
    endloop
  endfacet
  facet normal 0 0 1
    outer loop
      vertex -39.0893 42.0785 -6
      vertex -49.5 49.5 -6
      vertex -39.9133 41.4799 -6
    endloop
  endfacet
  facet normal 0 0 1
    outer loop
      vertex -36.3333 44.0809 -6
      vertex -49.5 49.5 -6
      vertex -39.0893 42.0785 -6
    endloop
  endfacet
  facet normal 0 0 1
    outer loop
      vertex -35.4029 44.4951 -6
      vertex -49.5 49.5 -6
      vertex -36.3333 44.0809 -6
    endloop
  endfacet
  facet normal 0 0 1
    outer loop
      vertex -32.2909 45.8807 -6
      vertex -49.5 49.5 -6
      vertex -35.4029 44.4951 -6
    endloop
  endfacet
  facet normal 0 0 1
    outer loop
      vertex -31.2946 46.0924 -6
      vertex -49.5 49.5 -6
      vertex -32.2909 45.8807 -6
    endloop
  endfacet
  facet normal -0 0 1
    outer loop
      vertex -49.5 49.5 -6
      vertex -27.9625 46.8007 -6
      vertex -2 49.5 -6
    endloop
  endfacet
  facet normal -0 0 1
    outer loop
      vertex -4.93941 22.3621 -6
      vertex -2 2 -6
      vertex -4.58333 25.75 -6
    endloop
  endfacet
  facet normal -0 0 1
    outer loop
      vertex -5.04588 21.3492 -6
      vertex -2 2 -6
      vertex -4.93941 22.3621 -6
    endloop
  endfacet
  facet normal -0 0 1
    outer loop
      vertex -5.3606 20.3806 -6
      vertex -2 2 -6
      vertex -5.04588 21.3492 -6
    endloop
  endfacet
  facet normal -0 0 1
    outer loop
      vertex -6.41329 17.1407 -6
      vertex -2 2 -6
      vertex -5.3606 20.3806 -6
    endloop
  endfacet
  facet normal -0 0 1
    outer loop
      vertex -6.92253 16.2587 -6
      vertex -2 2 -6
      vertex -6.41329 17.1407 -6
    endloop
  endfacet
  facet normal -0 0 1
    outer loop
      vertex -8.62581 13.3085 -6
      vertex -2 2 -6
      vertex -6.92253 16.2587 -6
    endloop
  endfacet
  facet normal -0 0 1
    outer loop
      vertex -10.9052 10.777 -6
      vertex -2 2 -6
      vertex -8.62581 13.3085 -6
    endloop
  endfacet
  facet normal -0 0 1
    outer loop
      vertex -11.5867 10.0201 -6
      vertex -2 2 -6
      vertex -10.9052 10.777 -6
    endloop
  endfacet
  facet normal -0 0 1
    outer loop
      vertex -12.4107 9.42145 -6
      vertex -2 2 -6
      vertex -11.5867 10.0201 -6
    endloop
  endfacet
  facet normal -0 0 1
    outer loop
      vertex -15.1667 7.41913 -6
      vertex -2 2 -6
      vertex -12.4107 9.42145 -6
    endloop
  endfacet
  facet normal -0 0 1
    outer loop
      vertex -16.0971 7.00487 -6
      vertex -2 2 -6
      vertex -15.1667 7.41913 -6
    endloop
  endfacet
  facet normal -0 0 1
    outer loop
      vertex -19.2091 5.6193 -6
      vertex -2 2 -6
      vertex -16.0971 7.00487 -6
    endloop
  endfacet
  facet normal -0 0 1
    outer loop
      vertex -20.2054 5.40755 -6
      vertex -2 2 -6
      vertex -19.2091 5.6193 -6
    endloop
  endfacet
  facet normal -0 0 1
    outer loop
      vertex -23.5375 4.69929 -6
      vertex -2 2 -6
      vertex -20.2054 5.40755 -6
    endloop
  endfacet
  facet normal -0 0 1
    outer loop
      vertex -27.9625 4.69929 -6
      vertex -2 2 -6
      vertex -23.5375 4.69929 -6
    endloop
  endfacet
  facet normal 0 0 1
    outer loop
      vertex -49.5 2 -6
      vertex -39.0893 9.42145 -6
      vertex -39.9133 10.0201 -6
    endloop
  endfacet
  facet normal 0 0 1
    outer loop
      vertex -49.5 2 -6
      vertex -40.5948 10.777 -6
      vertex -42.8742 13.3085 -6
    endloop
  endfacet
  facet normal 0 0 1
    outer loop
      vertex -49.5 2 -6
      vertex -44.5775 16.2587 -6
      vertex -45.0867 17.1407 -6
    endloop
  endfacet
  facet normal 0 0 1
    outer loop
      vertex -49.5 2 -6
      vertex -46.5606 22.3621 -6
      vertex -46.9167 25.75 -6
    endloop
  endfacet
  facet normal 0 0 1
    outer loop
      vertex -49.5 2 -6
      vertex -46.9167 25.75 -6
      vertex -49.5 49.5 -6
    endloop
  endfacet
  facet normal 0 0 1
    outer loop
      vertex -27.9625 4.69929 -6
      vertex -49.5 2 -6
      vertex -2 2 -6
    endloop
  endfacet
  facet normal 0 0 1
    outer loop
      vertex -31.2946 5.40755 -6
      vertex -49.5 2 -6
      vertex -27.9625 4.69929 -6
    endloop
  endfacet
  facet normal 0 0 1
    outer loop
      vertex -32.2909 5.6193 -6
      vertex -49.5 2 -6
      vertex -31.2946 5.40755 -6
    endloop
  endfacet
  facet normal 0 0 1
    outer loop
      vertex -35.4029 7.00487 -6
      vertex -49.5 2 -6
      vertex -32.2909 5.6193 -6
    endloop
  endfacet
  facet normal 0 0 1
    outer loop
      vertex -36.3333 7.41913 -6
      vertex -49.5 2 -6
      vertex -35.4029 7.00487 -6
    endloop
  endfacet
  facet normal 0 0 1
    outer loop
      vertex -39.0893 9.42145 -6
      vertex -49.5 2 -6
      vertex -36.3333 7.41913 -6
    endloop
  endfacet
  facet normal 0 0 1
    outer loop
      vertex -40.5948 10.777 -6
      vertex -49.5 2 -6
      vertex -39.9133 10.0201 -6
    endloop
  endfacet
  facet normal 0 0 1
    outer loop
      vertex -44.5775 16.2587 -6
      vertex -49.5 2 -6
      vertex -42.8742 13.3085 -6
    endloop
  endfacet
  facet normal 0 0 1
    outer loop
      vertex -46.1394 20.3806 -6
      vertex -49.5 2 -6
      vertex -45.0867 17.1407 -6
    endloop
  endfacet
  facet normal 0 0 1
    outer loop
      vertex -46.4541 21.3492 -6
      vertex -49.5 2 -6
      vertex -46.1394 20.3806 -6
    endloop
  endfacet
  facet normal 0 0 1
    outer loop
      vertex -46.5606 22.3621 -6
      vertex -49.5 2 -6
      vertex -46.4541 21.3492 -6
    endloop
  endfacet
  facet normal -1 0 0
    outer loop
      vertex -2 2 -6
      vertex -2 49.5 0
      vertex -2 49.5 -6
    endloop
  endfacet
  facet normal -1 -0 0
    outer loop
      vertex -2 49.5 0
      vertex -2 2 -6
      vertex -2 2 0
    endloop
  endfacet
  facet normal 0 -1 0
    outer loop
      vertex -49.5 49.5 -6
      vertex -2 49.5 0
      vertex -49.5 49.5 0
    endloop
  endfacet
  facet normal 0 -1 -0
    outer loop
      vertex -2 49.5 0
      vertex -49.5 49.5 -6
      vertex -2 49.5 -6
    endloop
  endfacet
  facet normal 0 1 -0
    outer loop
      vertex -2 2 -6
      vertex -49.5 2 0
      vertex -2 2 0
    endloop
  endfacet
  facet normal 0 1 0
    outer loop
      vertex -49.5 2 0
      vertex -2 2 -6
      vertex -49.5 2 -6
    endloop
  endfacet
  facet normal -0.991123 0.104176 0.0825977
    outer loop
      vertex -46.25 25.75 2
      vertex -46.5606 29.1379 -6
      vertex -46.9167 25.75 -6
    endloop
  endfacet
  facet normal -0.991123 0.104177 0.082598
    outer loop
      vertex -46.5606 29.1379 -6
      vertex -46.25 25.75 2
      vertex -45.802 30.0122 2
    endloop
  endfacet
  facet normal 0.947806 0.307964 0.0825924
    outer loop
      vertex -5.69797 30.0122 2
      vertex -5.04588 30.1508 -6
      vertex -5.3606 31.1194 -6
    endloop
  endfacet
  facet normal 0.991123 0.104181 0.0825926
    outer loop
      vertex -5.69797 30.0122 2
      vertex -4.93941 29.1379 -6
      vertex -5.04588 30.1508 -6
    endloop
  endfacet
  facet normal -0.405359 0.910419 0.0825938
    outer loop
      vertex -35.4029 44.4951 -6
      vertex -32.0848 45.2467 2
      vertex -32.2909 45.8807 -6
    endloop
  endfacet
  facet normal -0.405355 0.910421 0.082592
    outer loop
      vertex -32.0848 45.2467 2
      vertex -35.4029 44.4951 -6
      vertex -36 43.5035 2
    endloop
  endfacet
  facet normal 0.740614 0.666836 0.0825923
    outer loop
      vertex -12.0328 40.9845 2
      vertex -10.9052 40.723 -6
      vertex -11.5867 41.4799 -6
    endloop
  endfacet
  facet normal -0.405343 -0.910426 0.0825946
    outer loop
      vertex -35.4029 7.00487 -6
      vertex -32.0848 6.25334 2
      vertex -36 7.99648 2
    endloop
  endfacet
  facet normal -0.405351 -0.910422 0.0825983
    outer loop
      vertex -32.0848 6.25334 2
      vertex -35.4029 7.00487 -6
      vertex -32.2909 5.6193 -6
    endloop
  endfacet
  facet normal 0.740603 0.666847 0.0825905
    outer loop
      vertex -12.0328 40.9845 2
      vertex -8.62581 38.1915 -6
      vertex -10.9052 40.723 -6
    endloop
  endfacet
  facet normal 0.740611 0.666838 0.0825969
    outer loop
      vertex -8.62581 38.1915 -6
      vertex -12.0328 40.9845 2
      vertex -9.16515 37.7996 2
    endloop
  endfacet
  facet normal -0.863066 0.498292 0.0826023
    outer loop
      vertex -44.5775 35.2413 -6
      vertex -42.3348 37.7996 2
      vertex -42.8742 38.1915 -6
    endloop
  endfacet
  facet normal -0.86306 0.498303 0.082597
    outer loop
      vertex -42.3348 37.7996 2
      vertex -44.5775 35.2413 -6
      vertex -44.4777 34.0881 2
    endloop
  endfacet
  facet normal -0.207182 -0.974809 0.0825961
    outer loop
      vertex -32.2909 5.6193 -6
      vertex -31.2946 5.40755 -6
      vertex -32.0848 6.25334 2
    endloop
  endfacet
  facet normal 0.863067 -0.498291 0.0825943
    outer loop
      vertex -9.16515 13.7004 2
      vertex -6.92253 16.2587 -6
      vertex -7.02232 17.4119 2
    endloop
  endfacet
  facet normal 0.863069 -0.498287 0.0825958
    outer loop
      vertex -6.92253 16.2587 -6
      vertex -9.16515 13.7004 2
      vertex -8.62581 13.3085 -6
    endloop
  endfacet
  facet normal -0.585766 0.80626 0.0825963
    outer loop
      vertex -36.3333 44.0809 -6
      vertex -39.4672 40.9845 2
      vertex -36 43.5035 2
    endloop
  endfacet
  facet normal -0.585787 0.806247 0.0825831
    outer loop
      vertex -39.4672 40.9845 2
      vertex -36.3333 44.0809 -6
      vertex -39.0893 42.0785 -6
    endloop
  endfacet
  facet normal 0.947806 -0.307964 0.0825924
    outer loop
      vertex -5.3606 20.3806 -6
      vertex -5.04588 21.3492 -6
      vertex -5.69797 21.4878 2
    endloop
  endfacet
  facet normal -0.947812 0.307946 0.0825937
    outer loop
      vertex -46.4541 30.1508 -6
      vertex -45.802 30.0122 2
      vertex -46.1394 31.1194 -6
    endloop
  endfacet
  facet normal -0.740602 0.666849 0.0825902
    outer loop
      vertex -42.8742 38.1915 -6
      vertex -39.4672 40.9845 2
      vertex -40.5948 40.723 -6
    endloop
  endfacet
  facet normal -0.740616 0.666831 0.0826025
    outer loop
      vertex -39.4672 40.9845 2
      vertex -42.8742 38.1915 -6
      vertex -42.3348 37.7996 2
    endloop
  endfacet
  facet normal 0.947806 -0.307963 0.0825923
    outer loop
      vertex -7.02232 17.4119 2
      vertex -5.3606 20.3806 -6
      vertex -5.69797 21.4878 2
    endloop
  endfacet
  facet normal 0.947808 -0.307957 0.0825952
    outer loop
      vertex -5.3606 20.3806 -6
      vertex -7.02232 17.4119 2
      vertex -6.41329 17.1407 -6
    endloop
  endfacet
  facet normal -0.740614 -0.666836 0.0825923
    outer loop
      vertex -39.9133 10.0201 -6
      vertex -39.4672 10.5155 2
      vertex -40.5948 10.777 -6
    endloop
  endfacet
  facet normal 0.740614 -0.666836 0.0825923
    outer loop
      vertex -11.5867 10.0201 -6
      vertex -10.9052 10.777 -6
      vertex -12.0328 10.5155 2
    endloop
  endfacet
  facet normal -0.86306 -0.498303 0.082597
    outer loop
      vertex -44.5775 16.2587 -6
      vertex -42.3348 13.7004 2
      vertex -44.4777 17.4119 2
    endloop
  endfacet
  facet normal -0.863066 -0.498292 0.0826023
    outer loop
      vertex -42.3348 13.7004 2
      vertex -44.5775 16.2587 -6
      vertex -42.8742 13.3085 -6
    endloop
  endfacet
  facet normal 0.585764 -0.806263 0.0825915
    outer loop
      vertex -12.4107 9.42145 -6
      vertex -11.5867 10.0201 -6
      vertex -12.0328 10.5155 2
    endloop
  endfacet
  facet normal 0.863069 0.498287 0.0825958
    outer loop
      vertex -9.16515 37.7996 2
      vertex -6.92253 35.2413 -6
      vertex -8.62581 38.1915 -6
    endloop
  endfacet
  facet normal 0.863067 0.498291 0.0825943
    outer loop
      vertex -6.92253 35.2413 -6
      vertex -9.16515 37.7996 2
      vertex -7.02232 34.0881 2
    endloop
  endfacet
  facet normal -0.991123 -0.104176 0.0825977
    outer loop
      vertex -46.5606 22.3621 -6
      vertex -46.25 25.75 2
      vertex -46.9167 25.75 -6
    endloop
  endfacet
  facet normal -0.991123 -0.104177 0.082598
    outer loop
      vertex -46.25 25.75 2
      vertex -46.5606 22.3621 -6
      vertex -45.802 21.4878 2
    endloop
  endfacet
  facet normal -0.585764 -0.806263 0.0825915
    outer loop
      vertex -39.9133 10.0201 -6
      vertex -39.0893 9.42145 -6
      vertex -39.4672 10.5155 2
    endloop
  endfacet
  facet normal 0 0.996583 0.0825919
    outer loop
      vertex -23.5375 46.8007 -6
      vertex -27.8928 46.1377 2
      vertex -23.6072 46.1377 2
    endloop
  endfacet
  facet normal 0 0.996583 0.0825919
    outer loop
      vertex -27.8928 46.1377 2
      vertex -23.5375 46.8007 -6
      vertex -27.9625 46.8007 -6
    endloop
  endfacet
  facet normal 0.207182 -0.974809 0.0825961
    outer loop
      vertex -20.2054 5.40755 -6
      vertex -19.2091 5.6193 -6
      vertex -19.4152 6.25334 2
    endloop
  endfacet
  facet normal 0.585767 0.806261 0.082586
    outer loop
      vertex -12.4107 42.0785 -6
      vertex -15.5 43.5035 2
      vertex -12.0328 40.9845 2
    endloop
  endfacet
  facet normal 0.585786 0.806246 0.0825961
    outer loop
      vertex -15.5 43.5035 2
      vertex -12.4107 42.0785 -6
      vertex -15.1667 44.0809 -6
    endloop
  endfacet
  facet normal -0.99112 0.10421 0.0825941
    outer loop
      vertex -46.5606 29.1379 -6
      vertex -45.802 30.0122 2
      vertex -46.4541 30.1508 -6
    endloop
  endfacet
  facet normal -0.863076 -0.498275 0.0825932
    outer loop
      vertex -44.5775 16.2587 -6
      vertex -44.4777 17.4119 2
      vertex -45.0867 17.1407 -6
    endloop
  endfacet
  facet normal -0.947812 -0.307946 0.0825937
    outer loop
      vertex -46.1394 20.3806 -6
      vertex -45.802 21.4878 2
      vertex -46.4541 21.3492 -6
    endloop
  endfacet
  facet normal -0.207202 -0.974805 0.0825937
    outer loop
      vertex -31.2946 5.40755 -6
      vertex -27.8928 5.3623 2
      vertex -32.0848 6.25334 2
    endloop
  endfacet
  facet normal -0.207201 -0.974806 0.0825935
    outer loop
      vertex -27.8928 5.3623 2
      vertex -31.2946 5.40755 -6
      vertex -27.9625 4.69929 -6
    endloop
  endfacet
  facet normal -0.94781 -0.307953 0.0825945
    outer loop
      vertex -46.1394 20.3806 -6
      vertex -44.4777 17.4119 2
      vertex -45.802 21.4878 2
    endloop
  endfacet
  facet normal -0.947808 -0.307959 0.0825917
    outer loop
      vertex -44.4777 17.4119 2
      vertex -46.1394 20.3806 -6
      vertex -45.0867 17.1407 -6
    endloop
  endfacet
  facet normal 0.991123 -0.104181 0.0825926
    outer loop
      vertex -5.04588 21.3492 -6
      vertex -4.93941 22.3621 -6
      vertex -5.69797 21.4878 2
    endloop
  endfacet
  facet normal 0.740611 -0.666838 0.0825969
    outer loop
      vertex -12.0328 10.5155 2
      vertex -8.62581 13.3085 -6
      vertex -9.16515 13.7004 2
    endloop
  endfacet
  facet normal 0.740603 -0.666847 0.0825905
    outer loop
      vertex -8.62581 13.3085 -6
      vertex -12.0328 10.5155 2
      vertex -10.9052 10.777 -6
    endloop
  endfacet
  facet normal -0.405314 0.910439 0.0825973
    outer loop
      vertex -36 43.5035 2
      vertex -35.4029 44.4951 -6
      vertex -36.3333 44.0809 -6
    endloop
  endfacet
  facet normal -0.740602 -0.666849 0.0825902
    outer loop
      vertex -39.4672 10.5155 2
      vertex -42.8742 13.3085 -6
      vertex -40.5948 10.777 -6
    endloop
  endfacet
  facet normal -0.740616 -0.666831 0.0826025
    outer loop
      vertex -42.8742 13.3085 -6
      vertex -39.4672 10.5155 2
      vertex -42.3348 13.7004 2
    endloop
  endfacet
  facet normal -0.207136 0.97482 0.0825908
    outer loop
      vertex -32.0848 45.2467 2
      vertex -31.2946 46.0924 -6
      vertex -32.2909 45.8807 -6
    endloop
  endfacet
  facet normal 0.207136 0.97482 0.0825908
    outer loop
      vertex -19.4152 45.2467 2
      vertex -19.2091 45.8807 -6
      vertex -20.2054 46.0924 -6
    endloop
  endfacet
  facet normal 0.863059 0.498304 0.0825961
    outer loop
      vertex -7.02232 34.0881 2
      vertex -6.41329 34.3593 -6
      vertex -6.92253 35.2413 -6
    endloop
  endfacet
  facet normal -0.99112 -0.10421 0.0825941
    outer loop
      vertex -46.4541 21.3492 -6
      vertex -45.802 21.4878 2
      vertex -46.5606 22.3621 -6
    endloop
  endfacet
  facet normal 0.405314 0.910439 0.0825973
    outer loop
      vertex -15.5 43.5035 2
      vertex -15.1667 44.0809 -6
      vertex -16.0971 44.4951 -6
    endloop
  endfacet
  facet normal -0.863076 0.498275 0.0825932
    outer loop
      vertex -45.0867 34.3593 -6
      vertex -44.4777 34.0881 2
      vertex -44.5775 35.2413 -6
    endloop
  endfacet
  facet normal -0.947808 0.307959 0.0825917
    outer loop
      vertex -46.1394 31.1194 -6
      vertex -44.4777 34.0881 2
      vertex -45.0867 34.3593 -6
    endloop
  endfacet
  facet normal -0.94781 0.307953 0.0825945
    outer loop
      vertex -44.4777 34.0881 2
      vertex -46.1394 31.1194 -6
      vertex -45.802 30.0122 2
    endloop
  endfacet
  facet normal 0.405351 -0.910422 0.0825983
    outer loop
      vertex -16.0971 7.00487 -6
      vertex -19.4152 6.25334 2
      vertex -19.2091 5.6193 -6
    endloop
  endfacet
  facet normal 0.405343 -0.910426 0.0825946
    outer loop
      vertex -19.4152 6.25334 2
      vertex -16.0971 7.00487 -6
      vertex -15.5 7.99648 2
    endloop
  endfacet
  facet normal 0.991124 0.10417 0.0825939
    outer loop
      vertex -5.25 25.75 2
      vertex -4.93941 29.1379 -6
      vertex -5.69797 30.0122 2
    endloop
  endfacet
  facet normal 0.991124 0.104171 0.0825941
    outer loop
      vertex -4.93941 29.1379 -6
      vertex -5.25 25.75 2
      vertex -4.58333 25.75 -6
    endloop
  endfacet
  facet normal 0.991124 -0.104171 0.0825941
    outer loop
      vertex -5.25 25.75 2
      vertex -4.93941 22.3621 -6
      vertex -4.58333 25.75 -6
    endloop
  endfacet
  facet normal 0.991124 -0.10417 0.0825939
    outer loop
      vertex -4.93941 22.3621 -6
      vertex -5.25 25.75 2
      vertex -5.69797 21.4878 2
    endloop
  endfacet
  facet normal 0.405363 -0.910417 0.0825921
    outer loop
      vertex -16.0971 7.00487 -6
      vertex -15.1667 7.41913 -6
      vertex -15.5 7.99648 2
    endloop
  endfacet
  facet normal 0.58577 -0.806258 0.0825913
    outer loop
      vertex -15.1667 7.41913 -6
      vertex -12.0328 10.5155 2
      vertex -15.5 7.99648 2
    endloop
  endfacet
  facet normal 0.585771 -0.806257 0.0825904
    outer loop
      vertex -12.0328 10.5155 2
      vertex -15.1667 7.41913 -6
      vertex -12.4107 9.42145 -6
    endloop
  endfacet
  facet normal 0.863059 -0.498304 0.0825961
    outer loop
      vertex -6.92253 16.2587 -6
      vertex -6.41329 17.1407 -6
      vertex -7.02232 17.4119 2
    endloop
  endfacet
  facet normal -0.585732 0.806286 0.0825911
    outer loop
      vertex -39.4672 40.9845 2
      vertex -39.0893 42.0785 -6
      vertex -39.9133 41.4799 -6
    endloop
  endfacet
  facet normal -0.740614 0.666836 0.0825923
    outer loop
      vertex -40.5948 40.723 -6
      vertex -39.4672 40.9845 2
      vertex -39.9133 41.4799 -6
    endloop
  endfacet
  facet normal 0.947808 0.307957 0.0825952
    outer loop
      vertex -7.02232 34.0881 2
      vertex -5.3606 31.1194 -6
      vertex -6.41329 34.3593 -6
    endloop
  endfacet
  facet normal 0.947806 0.307963 0.0825923
    outer loop
      vertex -5.3606 31.1194 -6
      vertex -7.02232 34.0881 2
      vertex -5.69797 30.0122 2
    endloop
  endfacet
  facet normal 0.405355 0.910421 0.082592
    outer loop
      vertex -16.0971 44.4951 -6
      vertex -19.4152 45.2467 2
      vertex -15.5 43.5035 2
    endloop
  endfacet
  facet normal 0.405359 0.910419 0.0825938
    outer loop
      vertex -19.4152 45.2467 2
      vertex -16.0971 44.4951 -6
      vertex -19.2091 45.8807 -6
    endloop
  endfacet
  facet normal 0.207193 0.974808 0.0825839
    outer loop
      vertex -20.2054 46.0924 -6
      vertex -23.6072 46.1377 2
      vertex -19.4152 45.2467 2
    endloop
  endfacet
  facet normal 0.207213 0.974803 0.0825922
    outer loop
      vertex -23.6072 46.1377 2
      vertex -20.2054 46.0924 -6
      vertex -23.5375 46.8007 -6
    endloop
  endfacet
  facet normal 0.585732 0.806286 0.0825911
    outer loop
      vertex -12.0328 40.9845 2
      vertex -11.5867 41.4799 -6
      vertex -12.4107 42.0785 -6
    endloop
  endfacet
  facet normal 0 -0.996583 0.0825931
    outer loop
      vertex -27.9625 4.69929 -6
      vertex -23.6072 5.3623 2
      vertex -27.8928 5.3623 2
    endloop
  endfacet
  facet normal 0 -0.996583 0.0825931
    outer loop
      vertex -23.6072 5.3623 2
      vertex -27.9625 4.69929 -6
      vertex -23.5375 4.69929 -6
    endloop
  endfacet
  facet normal -0.207213 0.974803 0.0825922
    outer loop
      vertex -31.2946 46.0924 -6
      vertex -27.8928 46.1377 2
      vertex -27.9625 46.8007 -6
    endloop
  endfacet
  facet normal -0.207193 0.974808 0.0825839
    outer loop
      vertex -27.8928 46.1377 2
      vertex -31.2946 46.0924 -6
      vertex -32.0848 45.2467 2
    endloop
  endfacet
  facet normal -0.405363 -0.910417 0.0825921
    outer loop
      vertex -36.3333 7.41913 -6
      vertex -35.4029 7.00487 -6
      vertex -36 7.99648 2
    endloop
  endfacet
  facet normal -0.58577 -0.806258 0.0825906
    outer loop
      vertex -39.0893 9.42145 -6
      vertex -36 7.99648 2
      vertex -39.4672 10.5155 2
    endloop
  endfacet
  facet normal -0.585771 -0.806257 0.0825913
    outer loop
      vertex -36 7.99648 2
      vertex -39.0893 9.42145 -6
      vertex -36.3333 7.41913 -6
    endloop
  endfacet
  facet normal 0.207201 -0.974806 0.0825935
    outer loop
      vertex -20.2054 5.40755 -6
      vertex -23.6072 5.3623 2
      vertex -23.5375 4.69929 -6
    endloop
  endfacet
  facet normal 0.207202 -0.974805 0.0825937
    outer loop
      vertex -23.6072 5.3623 2
      vertex -20.2054 5.40755 -6
      vertex -19.4152 6.25334 2
    endloop
  endfacet
  facet normal 0 0 1
    outer loop
      vertex -6.25 25.75 2
      vertex -5.25 25.75 2
      vertex -5.69797 30.0122 2
    endloop
  endfacet
  facet normal 0 0 1
    outer loop
      vertex -5.25 25.75 2
      vertex -6.25 25.75 2
      vertex -5.69797 21.4878 2
    endloop
  endfacet
  facet normal 0 0 1
    outer loop
      vertex -5.69797 30.0122 2
      vertex -6.67612 29.8043 2
      vertex -6.25 25.75 2
    endloop
  endfacet
  facet normal 0 0 1
    outer loop
      vertex -7.02232 34.0881 2
      vertex -6.67612 29.8043 2
      vertex -5.69797 30.0122 2
    endloop
  endfacet
  facet normal 0 0 1
    outer loop
      vertex -7.02232 34.0881 2
      vertex -7.93586 33.6814 2
      vertex -6.67612 29.8043 2
    endloop
  endfacet
  facet normal 0 0 1
    outer loop
      vertex -9.16515 37.7996 2
      vertex -7.93586 33.6814 2
      vertex -7.02232 34.0881 2
    endloop
  endfacet
  facet normal 0 0 1
    outer loop
      vertex -9.16515 37.7996 2
      vertex -9.97417 37.2118 2
      vertex -7.93586 33.6814 2
    endloop
  endfacet
  facet normal 0 0 1
    outer loop
      vertex -12.0328 40.9845 2
      vertex -9.97417 37.2118 2
      vertex -9.16515 37.7996 2
    endloop
  endfacet
  facet normal 0 0 1
    outer loop
      vertex -12.0328 40.9845 2
      vertex -12.702 40.2413 2
      vertex -9.97417 37.2118 2
    endloop
  endfacet
  facet normal 0 0 1
    outer loop
      vertex -15.5 43.5035 2
      vertex -12.702 40.2413 2
      vertex -12.0328 40.9845 2
    endloop
  endfacet
  facet normal 0 0 1
    outer loop
      vertex -15.5 43.5035 2
      vertex -16 42.6375 2
      vertex -12.702 40.2413 2
    endloop
  endfacet
  facet normal 0 0 1
    outer loop
      vertex -19.4152 45.2467 2
      vertex -16 42.6375 2
      vertex -15.5 43.5035 2
    endloop
  endfacet
  facet normal 0 0 1
    outer loop
      vertex -19.4152 45.2467 2
      vertex -19.7242 44.2956 2
      vertex -16 42.6375 2
    endloop
  endfacet
  facet normal 0 0 1
    outer loop
      vertex -23.6072 46.1377 2
      vertex -19.7242 44.2956 2
      vertex -19.4152 45.2467 2
    endloop
  endfacet
  facet normal 0 0 1
    outer loop
      vertex -23.6072 46.1377 2
      vertex -23.7117 45.1432 2
      vertex -19.7242 44.2956 2
    endloop
  endfacet
  facet normal 0 0 1
    outer loop
      vertex -23.6072 46.1377 2
      vertex -27.7883 45.1432 2
      vertex -23.7117 45.1432 2
    endloop
  endfacet
  facet normal -0 0 1
    outer loop
      vertex -27.8928 46.1377 2
      vertex -27.7883 45.1432 2
      vertex -23.6072 46.1377 2
    endloop
  endfacet
  facet normal 0 0 1
    outer loop
      vertex -27.8928 46.1377 2
      vertex -31.7758 44.2956 2
      vertex -27.7883 45.1432 2
    endloop
  endfacet
  facet normal -0 0 1
    outer loop
      vertex -32.0848 45.2467 2
      vertex -31.7758 44.2956 2
      vertex -27.8928 46.1377 2
    endloop
  endfacet
  facet normal 0 0 1
    outer loop
      vertex -32.0848 45.2467 2
      vertex -35.5 42.6375 2
      vertex -31.7758 44.2956 2
    endloop
  endfacet
  facet normal -0 0 1
    outer loop
      vertex -36 43.5035 2
      vertex -35.5 42.6375 2
      vertex -32.0848 45.2467 2
    endloop
  endfacet
  facet normal 0 0 1
    outer loop
      vertex -36 43.5035 2
      vertex -38.798 40.2413 2
      vertex -35.5 42.6375 2
    endloop
  endfacet
  facet normal -0 0 1
    outer loop
      vertex -39.4672 40.9845 2
      vertex -38.798 40.2413 2
      vertex -36 43.5035 2
    endloop
  endfacet
  facet normal 0 0 1
    outer loop
      vertex -39.4672 40.9845 2
      vertex -41.5258 37.2118 2
      vertex -38.798 40.2413 2
    endloop
  endfacet
  facet normal -0 0 1
    outer loop
      vertex -42.3348 37.7996 2
      vertex -41.5258 37.2118 2
      vertex -39.4672 40.9845 2
    endloop
  endfacet
  facet normal 0 0 1
    outer loop
      vertex -42.3348 37.7996 2
      vertex -43.5641 33.6814 2
      vertex -41.5258 37.2118 2
    endloop
  endfacet
  facet normal -0 0 1
    outer loop
      vertex -44.4777 34.0881 2
      vertex -43.5641 33.6814 2
      vertex -42.3348 37.7996 2
    endloop
  endfacet
  facet normal 0 0 1
    outer loop
      vertex -44.4777 34.0881 2
      vertex -44.8239 29.8043 2
      vertex -43.5641 33.6814 2
    endloop
  endfacet
  facet normal -0 0 1
    outer loop
      vertex -45.802 30.0122 2
      vertex -44.8239 29.8043 2
      vertex -44.4777 34.0881 2
    endloop
  endfacet
  facet normal 0 0 1
    outer loop
      vertex -44.8239 29.8043 2
      vertex -45.802 30.0122 2
      vertex -45.25 25.75 2
    endloop
  endfacet
  facet normal -0 0 1
    outer loop
      vertex -6.67612 21.6957 2
      vertex -5.69797 21.4878 2
      vertex -6.25 25.75 2
    endloop
  endfacet
  facet normal 0 0 1
    outer loop
      vertex -6.67612 21.6957 2
      vertex -7.02232 17.4119 2
      vertex -5.69797 21.4878 2
    endloop
  endfacet
  facet normal -0 0 1
    outer loop
      vertex -7.93586 17.8186 2
      vertex -7.02232 17.4119 2
      vertex -6.67612 21.6957 2
    endloop
  endfacet
  facet normal 0 0 1
    outer loop
      vertex -7.93586 17.8186 2
      vertex -9.16515 13.7004 2
      vertex -7.02232 17.4119 2
    endloop
  endfacet
  facet normal -0 0 1
    outer loop
      vertex -9.97417 14.2882 2
      vertex -9.16515 13.7004 2
      vertex -7.93586 17.8186 2
    endloop
  endfacet
  facet normal 0 0 1
    outer loop
      vertex -9.97417 14.2882 2
      vertex -12.0328 10.5155 2
      vertex -9.16515 13.7004 2
    endloop
  endfacet
  facet normal -0 0 1
    outer loop
      vertex -12.702 11.2587 2
      vertex -12.0328 10.5155 2
      vertex -9.97417 14.2882 2
    endloop
  endfacet
  facet normal 0 0 1
    outer loop
      vertex -12.702 11.2587 2
      vertex -15.5 7.99648 2
      vertex -12.0328 10.5155 2
    endloop
  endfacet
  facet normal -0 0 1
    outer loop
      vertex -16 8.8625 2
      vertex -15.5 7.99648 2
      vertex -12.702 11.2587 2
    endloop
  endfacet
  facet normal 0 0 1
    outer loop
      vertex -16 8.8625 2
      vertex -19.4152 6.25334 2
      vertex -15.5 7.99648 2
    endloop
  endfacet
  facet normal -0 0 1
    outer loop
      vertex -19.7242 7.2044 2
      vertex -19.4152 6.25334 2
      vertex -16 8.8625 2
    endloop
  endfacet
  facet normal 0 0 1
    outer loop
      vertex -19.7242 7.2044 2
      vertex -23.6072 5.3623 2
      vertex -19.4152 6.25334 2
    endloop
  endfacet
  facet normal -0 0 1
    outer loop
      vertex -23.7117 6.35682 2
      vertex -23.6072 5.3623 2
      vertex -19.7242 7.2044 2
    endloop
  endfacet
  facet normal -0 0 1
    outer loop
      vertex -27.7883 6.35682 2
      vertex -23.6072 5.3623 2
      vertex -23.7117 6.35682 2
    endloop
  endfacet
  facet normal 0 0 1
    outer loop
      vertex -27.7883 6.35682 2
      vertex -27.8928 5.3623 2
      vertex -23.6072 5.3623 2
    endloop
  endfacet
  facet normal 0 0 1
    outer loop
      vertex -31.7758 7.2044 2
      vertex -27.8928 5.3623 2
      vertex -27.7883 6.35682 2
    endloop
  endfacet
  facet normal 0 0 1
    outer loop
      vertex -31.7758 7.2044 2
      vertex -32.0848 6.25334 2
      vertex -27.8928 5.3623 2
    endloop
  endfacet
  facet normal 0 0 1
    outer loop
      vertex -35.5 8.8625 2
      vertex -32.0848 6.25334 2
      vertex -31.7758 7.2044 2
    endloop
  endfacet
  facet normal 0 0 1
    outer loop
      vertex -35.5 8.8625 2
      vertex -36 7.99648 2
      vertex -32.0848 6.25334 2
    endloop
  endfacet
  facet normal 0 0 1
    outer loop
      vertex -38.798 11.2587 2
      vertex -36 7.99648 2
      vertex -35.5 8.8625 2
    endloop
  endfacet
  facet normal 0 0 1
    outer loop
      vertex -38.798 11.2587 2
      vertex -39.4672 10.5155 2
      vertex -36 7.99648 2
    endloop
  endfacet
  facet normal 0 0 1
    outer loop
      vertex -41.5258 14.2882 2
      vertex -39.4672 10.5155 2
      vertex -38.798 11.2587 2
    endloop
  endfacet
  facet normal 0 0 1
    outer loop
      vertex -41.5258 14.2882 2
      vertex -42.3348 13.7004 2
      vertex -39.4672 10.5155 2
    endloop
  endfacet
  facet normal 0 0 1
    outer loop
      vertex -43.5641 17.8186 2
      vertex -42.3348 13.7004 2
      vertex -41.5258 14.2882 2
    endloop
  endfacet
  facet normal 0 0 1
    outer loop
      vertex -43.5641 17.8186 2
      vertex -44.4777 17.4119 2
      vertex -42.3348 13.7004 2
    endloop
  endfacet
  facet normal 0 0 1
    outer loop
      vertex -44.8239 21.6957 2
      vertex -44.4777 17.4119 2
      vertex -43.5641 17.8186 2
    endloop
  endfacet
  facet normal 0 0 1
    outer loop
      vertex -45.802 21.4878 2
      vertex -44.8239 21.6957 2
      vertex -45.25 25.75 2
    endloop
  endfacet
  facet normal 0 0 1
    outer loop
      vertex -46.25 25.75 2
      vertex -45.25 25.75 2
      vertex -45.802 30.0122 2
    endloop
  endfacet
  facet normal 0 0 1
    outer loop
      vertex -44.8239 21.6957 2
      vertex -45.802 21.4878 2
      vertex -44.4777 17.4119 2
    endloop
  endfacet
  facet normal 0 0 1
    outer loop
      vertex -45.25 25.75 2
      vertex -46.25 25.75 2
      vertex -45.802 21.4878 2
    endloop
  endfacet
  facet normal -0.947804 0.30797 -0.0825915
    outer loop
      vertex -7.32683 17.5475 -8
      vertex -7.93586 17.8186 0
      vertex -7.02536 18.4753 -8
    endloop
  endfacet
  facet normal 0.947825 0.307905 -0.0825991
    outer loop
      vertex -44.1732 17.5475 -8
      vertex -44.4746 18.4753 -8
      vertex -43.5641 17.8186 0
    endloop
  endfacet
  facet normal 0.991122 -0.104189 -0.0825976
    outer loop
      vertex -45.9167 25.75 -8
      vertex -45.8147 26.7203 -8
      vertex -45.25 25.75 0
    endloop
  endfacet
  facet normal 0.991124 -0.104169 -0.0825937
    outer loop
      vertex -44.8239 29.8043 0
      vertex -45.8147 26.7203 -8
      vertex -45.476 29.9429 -8
    endloop
  endfacet
  facet normal 0.991124 -0.104165 -0.082595
    outer loop
      vertex -45.8147 26.7203 -8
      vertex -44.8239 29.8043 0
      vertex -45.25 25.75 0
    endloop
  endfacet
  facet normal 0 0.996583 -0.0825931
    outer loop
      vertex -23.642 5.69381 -8
      vertex -27.7883 6.35682 0
      vertex -23.7117 6.35682 0
    endloop
  endfacet
  facet normal 0 0.996583 -0.0825931
    outer loop
      vertex -27.7883 6.35682 0
      vertex -23.642 5.69381 -8
      vertex -27.858 5.69381 -8
    endloop
  endfacet
  facet normal 0.863069 0.498287 -0.0825976
    outer loop
      vertex -43.5641 17.8186 0
      vertex -42.553 14.7412 -8
      vertex -44.1732 17.5475 -8
    endloop
  endfacet
  facet normal 0.863064 0.498295 -0.0826014
    outer loop
      vertex -42.553 14.7412 -8
      vertex -43.5641 17.8186 0
      vertex -41.5258 14.2882 0
    endloop
  endfacet
  facet normal -0.585787 -0.806246 -0.0825936
    outer loop
      vertex -14.8774 42.6414 -8
      vertex -12.702 40.2413 0
      vertex -16 42.6375 0
    endloop
  endfacet
  facet normal -0.58577 -0.806257 -0.0826016
    outer loop
      vertex -12.702 40.2413 0
      vertex -14.8774 42.6414 -8
      vertex -12.2559 40.7368 -8
    endloop
  endfacet
  facet normal 0.405328 0.910433 -0.0825935
    outer loop
      vertex -31.9818 6.57036 -8
      vertex -32.8731 6.96717 -8
      vertex -31.7758 7.2044 0
    endloop
  endfacet
  facet normal -0.58577 0.806257 -0.0826016
    outer loop
      vertex -14.8774 8.8586 -8
      vertex -12.702 11.2587 0
      vertex -12.2559 10.7632 -8
    endloop
  endfacet
  facet normal -0.585787 0.806246 -0.0825936
    outer loop
      vertex -12.702 11.2587 0
      vertex -14.8774 8.8586 -8
      vertex -16 8.8625 0
    endloop
  endfacet
  facet normal 0.740602 0.666847 -0.0826022
    outer loop
      vertex -38.798 11.2587 0
      vertex -41.4124 13.1713 -8
      vertex -41.5258 14.2882 0
    endloop
  endfacet
  facet normal 0.7406 0.66685 -0.0826007
    outer loop
      vertex -41.4124 13.1713 -8
      vertex -38.798 11.2587 0
      vertex -39.2441 10.7632 -8
    endloop
  endfacet
  facet normal 0.863067 0.498289 -0.0826022
    outer loop
      vertex -42.0652 13.8963 -8
      vertex -42.553 14.7412 -8
      vertex -41.5258 14.2882 0
    endloop
  endfacet
  facet normal -0.947807 -0.307962 -0.0825935
    outer loop
      vertex -6.67612 29.8043 0
      vertex -7.02536 33.0247 -8
      vertex -6.02402 29.9429 -8
    endloop
  endfacet
  facet normal -0.947808 -0.30796 -0.0825927
    outer loop
      vertex -7.02536 33.0247 -8
      vertex -6.67612 29.8043 0
      vertex -7.93586 33.6814 0
    endloop
  endfacet
  facet normal -0.947807 0.307962 -0.0825935
    outer loop
      vertex -7.02536 18.4753 -8
      vertex -6.67612 21.6957 0
      vertex -6.02402 21.5571 -8
    endloop
  endfacet
  facet normal -0.947808 0.30796 -0.0825927
    outer loop
      vertex -6.67612 21.6957 0
      vertex -7.02536 18.4753 -8
      vertex -7.93586 17.8186 0
    endloop
  endfacet
  facet normal 0.740602 0.666848 -0.0826023
    outer loop
      vertex -42.0652 13.8963 -8
      vertex -41.5258 14.2882 0
      vertex -41.4124 13.1713 -8
    endloop
  endfacet
  facet normal 0.58577 0.806258 -0.0825913
    outer loop
      vertex -35.8333 8.28515 -8
      vertex -36.6226 8.8586 -8
      vertex -35.5 8.8625 0
    endloop
  endfacet
  facet normal -0.991124 -0.104172 -0.0825938
    outer loop
      vertex -5.68531 26.7203 -8
      vertex -6.67612 29.8043 0
      vertex -6.02402 29.9429 -8
    endloop
  endfacet
  facet normal -0.991124 -0.10417 -0.0825943
    outer loop
      vertex -6.67612 29.8043 0
      vertex -5.68531 26.7203 -8
      vertex -6.25 25.75 0
    endloop
  endfacet
  facet normal 0.991122 0.104189 -0.0825976
    outer loop
      vertex -45.8147 24.7797 -8
      vertex -45.9167 25.75 -8
      vertex -45.25 25.75 0
    endloop
  endfacet
  facet normal -0.40532 -0.910437 -0.0825891
    outer loop
      vertex -19.7242 44.2956 0
      vertex -19.5182 44.9296 -8
      vertex -18.6269 44.5328 -8
    endloop
  endfacet
  facet normal -0.991124 0.10417 -0.0825943
    outer loop
      vertex -5.68531 24.7797 -8
      vertex -6.67612 21.6957 0
      vertex -6.25 25.75 0
    endloop
  endfacet
  facet normal -0.991124 0.104172 -0.0825938
    outer loop
      vertex -6.67612 21.6957 0
      vertex -5.68531 24.7797 -8
      vertex -6.02402 21.5571 -8
    endloop
  endfacet
  facet normal -0.207204 0.974805 -0.0825956
    outer loop
      vertex -20.4724 6.36752 -8
      vertex -23.7117 6.35682 0
      vertex -19.7242 7.2044 0
    endloop
  endfacet
  facet normal -0.207199 0.974806 -0.0825935
    outer loop
      vertex -23.7117 6.35682 0
      vertex -20.4724 6.36752 -8
      vertex -23.642 5.69381 -8
    endloop
  endfacet
  facet normal -0.405328 0.910433 -0.0825935
    outer loop
      vertex -19.5182 6.57036 -8
      vertex -19.7242 7.2044 0
      vertex -18.6269 6.96717 -8
    endloop
  endfacet
  facet normal 0.207219 0.974802 -0.0825938
    outer loop
      vertex -31.9818 6.57036 -8
      vertex -31.7758 7.2044 0
      vertex -31.0276 6.36752 -8
    endloop
  endfacet
  facet normal -0.7406 -0.66685 -0.0826007
    outer loop
      vertex -10.0876 38.3287 -8
      vertex -12.702 40.2413 0
      vertex -12.2559 40.7368 -8
    endloop
  endfacet
  facet normal -0.740599 -0.666852 -0.0826001
    outer loop
      vertex -12.702 40.2413 0
      vertex -10.0876 38.3287 -8
      vertex -9.97417 37.2118 0
    endloop
  endfacet
  facet normal -0.58577 0.806258 -0.0825913
    outer loop
      vertex -15.6667 8.28515 -8
      vertex -16 8.8625 0
      vertex -14.8774 8.8586 -8
    endloop
  endfacet
  facet normal 0.991124 0.104165 -0.082595
    outer loop
      vertex -44.8239 21.6957 0
      vertex -45.8147 24.7797 -8
      vertex -45.25 25.75 0
    endloop
  endfacet
  facet normal 0.991124 0.104169 -0.0825937
    outer loop
      vertex -45.8147 24.7797 -8
      vertex -44.8239 21.6957 0
      vertex -45.476 21.5571 -8
    endloop
  endfacet
  facet normal 0.207199 0.974806 -0.0825935
    outer loop
      vertex -31.0276 6.36752 -8
      vertex -27.7883 6.35682 0
      vertex -27.858 5.69381 -8
    endloop
  endfacet
  facet normal 0.207204 0.974805 -0.0825956
    outer loop
      vertex -27.7883 6.35682 0
      vertex -31.0276 6.36752 -8
      vertex -31.7758 7.2044 0
    endloop
  endfacet
  facet normal -0.740612 -0.666837 -0.0825978
    outer loop
      vertex -9.97417 37.2118 0
      vertex -10.0876 38.3287 -8
      vertex -9.43482 37.6037 -8
    endloop
  endfacet
  facet normal -0.740612 0.666837 -0.0825978
    outer loop
      vertex -10.0876 13.1713 -8
      vertex -9.97417 14.2882 0
      vertex -9.43482 13.8963 -8
    endloop
  endfacet
  facet normal -0.585737 -0.806282 -0.0825866
    outer loop
      vertex -16 42.6375 0
      vertex -15.6667 43.2148 -8
      vertex -14.8774 42.6414 -8
    endloop
  endfacet
  facet normal -0.405343 -0.910426 -0.082592
    outer loop
      vertex -18.6269 44.5328 -8
      vertex -16 42.6375 0
      vertex -19.7242 44.2956 0
    endloop
  endfacet
  facet normal -0.405356 -0.910421 -0.0825864
    outer loop
      vertex -16 42.6375 0
      vertex -18.6269 44.5328 -8
      vertex -15.6667 43.2148 -8
    endloop
  endfacet
  facet normal 0.58577 -0.806257 -0.0826016
    outer loop
      vertex -36.6226 42.6414 -8
      vertex -38.798 40.2413 0
      vertex -39.2441 40.7368 -8
    endloop
  endfacet
  facet normal 0.585787 -0.806246 -0.0825936
    outer loop
      vertex -38.798 40.2413 0
      vertex -36.6226 42.6414 -8
      vertex -35.5 42.6375 0
    endloop
  endfacet
  facet normal 0.585787 0.806246 -0.0825936
    outer loop
      vertex -36.6226 8.8586 -8
      vertex -38.798 11.2587 0
      vertex -35.5 8.8625 0
    endloop
  endfacet
  facet normal 0.58577 0.806257 -0.0826016
    outer loop
      vertex -38.798 11.2587 0
      vertex -36.6226 8.8586 -8
      vertex -39.2441 10.7632 -8
    endloop
  endfacet
  facet normal 0.405343 0.910426 -0.0825954
    outer loop
      vertex -32.8731 6.96717 -8
      vertex -35.5 8.8625 0
      vertex -31.7758 7.2044 0
    endloop
  endfacet
  facet normal 0.405351 0.910423 -0.082592
    outer loop
      vertex -35.5 8.8625 0
      vertex -32.8731 6.96717 -8
      vertex -35.8333 8.28515 -8
    endloop
  endfacet
  facet normal -0.207219 0.974802 -0.0825938
    outer loop
      vertex -20.4724 6.36752 -8
      vertex -19.7242 7.2044 0
      vertex -19.5182 6.57036 -8
    endloop
  endfacet
  facet normal -0.86307 0.498285 -0.0825901
    outer loop
      vertex -8.94702 14.7412 -8
      vertex -7.93586 17.8186 0
      vertex -7.32683 17.5475 -8
    endloop
  endfacet
  facet normal -0.863063 0.498298 -0.0825958
    outer loop
      vertex -7.93586 17.8186 0
      vertex -8.94702 14.7412 -8
      vertex -9.97417 14.2882 0
    endloop
  endfacet
  facet normal 0.947801 0.307979 -0.0825934
    outer loop
      vertex -44.8239 21.6957 0
      vertex -44.4746 18.4753 -8
      vertex -45.476 21.5571 -8
    endloop
  endfacet
  facet normal 0.947803 0.307973 -0.0825911
    outer loop
      vertex -44.4746 18.4753 -8
      vertex -44.8239 21.6957 0
      vertex -43.5641 17.8186 0
    endloop
  endfacet
  facet normal 0.405356 -0.910421 -0.0825864
    outer loop
      vertex -32.8731 44.5328 -8
      vertex -35.5 42.6375 0
      vertex -35.8333 43.2148 -8
    endloop
  endfacet
  facet normal 0.405343 -0.910426 -0.082592
    outer loop
      vertex -35.5 42.6375 0
      vertex -32.8731 44.5328 -8
      vertex -31.7758 44.2956 0
    endloop
  endfacet
  facet normal 0.40532 -0.910437 -0.0825891
    outer loop
      vertex -32.8731 44.5328 -8
      vertex -31.9818 44.9296 -8
      vertex -31.7758 44.2956 0
    endloop
  endfacet
  facet normal -0.863068 0.498289 -0.0825969
    outer loop
      vertex -9.43482 13.8963 -8
      vertex -9.97417 14.2882 0
      vertex -8.94702 14.7412 -8
    endloop
  endfacet
  facet normal -0.405351 0.910423 -0.082592
    outer loop
      vertex -18.6269 6.96717 -8
      vertex -16 8.8625 0
      vertex -15.6667 8.28515 -8
    endloop
  endfacet
  facet normal -0.405343 0.910426 -0.0825954
    outer loop
      vertex -16 8.8625 0
      vertex -18.6269 6.96717 -8
      vertex -19.7242 7.2044 0
    endloop
  endfacet
  facet normal -0.991124 -0.104169 -0.0825941
    outer loop
      vertex -6.25 25.75 0
      vertex -5.68531 26.7203 -8
      vertex -5.58333 25.75 -8
    endloop
  endfacet
  facet normal 0.585737 -0.806282 -0.0825866
    outer loop
      vertex -36.6226 42.6414 -8
      vertex -35.8333 43.2148 -8
      vertex -35.5 42.6375 0
    endloop
  endfacet
  facet normal -0.740599 0.666852 -0.0826001
    outer loop
      vertex -10.0876 13.1713 -8
      vertex -12.702 11.2587 0
      vertex -9.97417 14.2882 0
    endloop
  endfacet
  facet normal -0.7406 0.66685 -0.0826007
    outer loop
      vertex -12.702 11.2587 0
      vertex -10.0876 13.1713 -8
      vertex -12.2559 10.7632 -8
    endloop
  endfacet
  facet normal -0.947804 -0.30797 -0.0825915
    outer loop
      vertex -7.93586 33.6814 0
      vertex -7.32683 33.9525 -8
      vertex -7.02536 33.0247 -8
    endloop
  endfacet
  facet normal -0.207278 -0.97479 -0.0825895
    outer loop
      vertex -19.7242 44.2956 0
      vertex -20.4724 45.1325 -8
      vertex -19.5182 44.9296 -8
    endloop
  endfacet
  facet normal -0.863068 -0.498289 -0.0825969
    outer loop
      vertex -9.97417 37.2118 0
      vertex -9.43482 37.6037 -8
      vertex -8.94702 36.7588 -8
    endloop
  endfacet
  facet normal -0.991124 0.104169 -0.0825941
    outer loop
      vertex -5.68531 24.7797 -8
      vertex -6.25 25.75 0
      vertex -5.58333 25.75 -8
    endloop
  endfacet
  facet normal 0.740602 -0.666848 -0.0826023
    outer loop
      vertex -41.5258 37.2118 0
      vertex -42.0652 37.6037 -8
      vertex -41.4124 38.3287 -8
    endloop
  endfacet
  facet normal 0.207278 -0.97479 -0.0825895
    outer loop
      vertex -31.7758 44.2956 0
      vertex -31.9818 44.9296 -8
      vertex -31.0276 45.1325 -8
    endloop
  endfacet
  facet normal 0 -0.996583 -0.0825919
    outer loop
      vertex -27.858 45.8062 -8
      vertex -23.7117 45.1432 0
      vertex -27.7883 45.1432 0
    endloop
  endfacet
  facet normal 0 -0.996583 -0.0825919
    outer loop
      vertex -23.7117 45.1432 0
      vertex -27.858 45.8062 -8
      vertex -23.642 45.8062 -8
    endloop
  endfacet
  facet normal 0.863064 -0.498295 -0.0826014
    outer loop
      vertex -43.5641 33.6814 0
      vertex -42.553 36.7588 -8
      vertex -41.5258 37.2118 0
    endloop
  endfacet
  facet normal 0.863069 -0.498287 -0.0825976
    outer loop
      vertex -42.553 36.7588 -8
      vertex -43.5641 33.6814 0
      vertex -44.1732 33.9525 -8
    endloop
  endfacet
  facet normal -0.207196 -0.974807 -0.0825923
    outer loop
      vertex -20.4724 45.1325 -8
      vertex -23.7117 45.1432 0
      vertex -23.642 45.8062 -8
    endloop
  endfacet
  facet normal -0.207208 -0.974804 -0.0825975
    outer loop
      vertex -23.7117 45.1432 0
      vertex -20.4724 45.1325 -8
      vertex -19.7242 44.2956 0
    endloop
  endfacet
  facet normal -0.86307 -0.498285 -0.0825901
    outer loop
      vertex -7.93586 33.6814 0
      vertex -8.94702 36.7588 -8
      vertex -7.32683 33.9525 -8
    endloop
  endfacet
  facet normal -0.863063 -0.498298 -0.0825958
    outer loop
      vertex -8.94702 36.7588 -8
      vertex -7.93586 33.6814 0
      vertex -9.97417 37.2118 0
    endloop
  endfacet
  facet normal 0.207208 -0.974804 -0.0825975
    outer loop
      vertex -31.0276 45.1325 -8
      vertex -27.7883 45.1432 0
      vertex -31.7758 44.2956 0
    endloop
  endfacet
  facet normal 0.207196 -0.974807 -0.0825923
    outer loop
      vertex -27.7883 45.1432 0
      vertex -31.0276 45.1325 -8
      vertex -27.858 45.8062 -8
    endloop
  endfacet
  facet normal 0.863067 -0.498289 -0.0826022
    outer loop
      vertex -42.553 36.7588 -8
      vertex -42.0652 37.6037 -8
      vertex -41.5258 37.2118 0
    endloop
  endfacet
  facet normal 0.7406 -0.66685 -0.0826007
    outer loop
      vertex -38.798 40.2413 0
      vertex -41.4124 38.3287 -8
      vertex -39.2441 40.7368 -8
    endloop
  endfacet
  facet normal 0.740602 -0.666847 -0.0826022
    outer loop
      vertex -41.4124 38.3287 -8
      vertex -38.798 40.2413 0
      vertex -41.5258 37.2118 0
    endloop
  endfacet
  facet normal 0.947825 -0.307905 -0.0825991
    outer loop
      vertex -44.4746 33.0247 -8
      vertex -44.1732 33.9525 -8
      vertex -43.5641 33.6814 0
    endloop
  endfacet
  facet normal 0.947803 -0.307973 -0.0825911
    outer loop
      vertex -44.8239 29.8043 0
      vertex -44.4746 33.0247 -8
      vertex -43.5641 33.6814 0
    endloop
  endfacet
  facet normal 0.947801 -0.307979 -0.0825934
    outer loop
      vertex -44.4746 33.0247 -8
      vertex -44.8239 29.8043 0
      vertex -45.476 29.9429 -8
    endloop
  endfacet
  facet normal -0.743138 0.669138 0
    outer loop
      vertex -12.702 11.2587 0
      vertex -9.97417 14.2882 2
      vertex -9.97417 14.2882 0
    endloop
  endfacet
  facet normal -0.743138 0.669138 0
    outer loop
      vertex -9.97417 14.2882 2
      vertex -12.702 11.2587 0
      vertex -12.702 11.2587 2
    endloop
  endfacet
  facet normal 0.951053 -0.309029 0
    outer loop
      vertex -44.8239 29.8043 2
      vertex -43.5641 33.6814 0
      vertex -43.5641 33.6814 2
    endloop
  endfacet
  facet normal 0.951053 -0.309029 0
    outer loop
      vertex -43.5641 33.6814 0
      vertex -44.8239 29.8043 2
      vertex -44.8239 29.8043 0
    endloop
  endfacet
  facet normal 0.994523 -0.104523 0
    outer loop
      vertex -45.25 25.75 2
      vertex -44.8239 29.8043 0
      vertex -44.8239 29.8043 2
    endloop
  endfacet
  facet normal 0.994523 -0.104523 0
    outer loop
      vertex -44.8239 29.8043 0
      vertex -45.25 25.75 2
      vertex -45.25 25.75 0
    endloop
  endfacet
  facet normal 0.866023 -0.500004 0
    outer loop
      vertex -43.5641 33.6814 2
      vertex -41.5258 37.2118 0
      vertex -41.5258 37.2118 2
    endloop
  endfacet
  facet normal 0.866023 -0.500004 0
    outer loop
      vertex -41.5258 37.2118 0
      vertex -43.5641 33.6814 2
      vertex -43.5641 33.6814 0
    endloop
  endfacet
  facet normal 0.951053 0.309029 0
    outer loop
      vertex -43.5641 17.8186 2
      vertex -44.8239 21.6957 0
      vertex -44.8239 21.6957 2
    endloop
  endfacet
  facet normal 0.951053 0.309029 0
    outer loop
      vertex -44.8239 21.6957 0
      vertex -43.5641 17.8186 2
      vertex -43.5641 17.8186 0
    endloop
  endfacet
  facet normal 0.587795 0.80901 -0
    outer loop
      vertex -35.5 8.8625 0
      vertex -38.798 11.2587 2
      vertex -35.5 8.8625 2
    endloop
  endfacet
  facet normal 0.587795 0.80901 0
    outer loop
      vertex -38.798 11.2587 2
      vertex -35.5 8.8625 0
      vertex -38.798 11.2587 0
    endloop
  endfacet
  facet normal 0.743142 0.669134 0
    outer loop
      vertex -38.798 11.2587 2
      vertex -41.5258 14.2882 0
      vertex -41.5258 14.2882 2
    endloop
  endfacet
  facet normal 0.743142 0.669134 0
    outer loop
      vertex -41.5258 14.2882 0
      vertex -38.798 11.2587 2
      vertex -38.798 11.2587 0
    endloop
  endfacet
  facet normal 0.994523 0.104523 0
    outer loop
      vertex -44.8239 21.6957 2
      vertex -45.25 25.75 0
      vertex -45.25 25.75 2
    endloop
  endfacet
  facet normal 0.994523 0.104523 0
    outer loop
      vertex -45.25 25.75 0
      vertex -44.8239 21.6957 2
      vertex -44.8239 21.6957 0
    endloop
  endfacet
  facet normal -0.406732 0.913547 0
    outer loop
      vertex -16 8.8625 0
      vertex -19.7242 7.2044 2
      vertex -16 8.8625 2
    endloop
  endfacet
  facet normal -0.406732 0.913547 0
    outer loop
      vertex -19.7242 7.2044 2
      vertex -16 8.8625 0
      vertex -19.7242 7.2044 0
    endloop
  endfacet
  facet normal 0.406732 -0.913547 0
    outer loop
      vertex -35.5 42.6375 0
      vertex -31.7758 44.2956 2
      vertex -35.5 42.6375 2
    endloop
  endfacet
  facet normal 0.406732 -0.913547 0
    outer loop
      vertex -31.7758 44.2956 2
      vertex -35.5 42.6375 0
      vertex -31.7758 44.2956 0
    endloop
  endfacet
  facet normal 0.743142 -0.669134 0
    outer loop
      vertex -41.5258 37.2118 2
      vertex -38.798 40.2413 0
      vertex -38.798 40.2413 2
    endloop
  endfacet
  facet normal 0.743142 -0.669134 0
    outer loop
      vertex -38.798 40.2413 0
      vertex -41.5258 37.2118 2
      vertex -41.5258 37.2118 0
    endloop
  endfacet
  facet normal -0.587795 0.80901 0
    outer loop
      vertex -12.702 11.2587 0
      vertex -16 8.8625 2
      vertex -12.702 11.2587 2
    endloop
  endfacet
  facet normal -0.587795 0.80901 0
    outer loop
      vertex -16 8.8625 2
      vertex -12.702 11.2587 0
      vertex -16 8.8625 0
    endloop
  endfacet
  facet normal -0.743138 -0.669138 0
    outer loop
      vertex -9.97417 37.2118 0
      vertex -12.702 40.2413 2
      vertex -12.702 40.2413 0
    endloop
  endfacet
  facet normal -0.743138 -0.669138 0
    outer loop
      vertex -12.702 40.2413 2
      vertex -9.97417 37.2118 0
      vertex -9.97417 37.2118 2
    endloop
  endfacet
  facet normal 0 -1 0
    outer loop
      vertex -27.7883 45.1432 0
      vertex -23.7117 45.1432 2
      vertex -27.7883 45.1432 2
    endloop
  endfacet
  facet normal 0 -1 -0
    outer loop
      vertex -23.7117 45.1432 2
      vertex -27.7883 45.1432 0
      vertex -23.7117 45.1432 0
    endloop
  endfacet
  facet normal 0.406732 0.913547 -0
    outer loop
      vertex -31.7758 7.2044 0
      vertex -35.5 8.8625 2
      vertex -31.7758 7.2044 2
    endloop
  endfacet
  facet normal 0.406732 0.913547 0
    outer loop
      vertex -35.5 8.8625 2
      vertex -31.7758 7.2044 0
      vertex -35.5 8.8625 0
    endloop
  endfacet
  facet normal 0.207914 0.978147 -0
    outer loop
      vertex -27.7883 6.35682 0
      vertex -31.7758 7.2044 2
      vertex -27.7883 6.35682 2
    endloop
  endfacet
  facet normal 0.207914 0.978147 0
    outer loop
      vertex -31.7758 7.2044 2
      vertex -27.7883 6.35682 0
      vertex -31.7758 7.2044 0
    endloop
  endfacet
  facet normal -0.951057 -0.309016 0
    outer loop
      vertex -6.67612 29.8043 0
      vertex -7.93586 33.6814 2
      vertex -7.93586 33.6814 0
    endloop
  endfacet
  facet normal -0.951057 -0.309016 0
    outer loop
      vertex -7.93586 33.6814 2
      vertex -6.67612 29.8043 0
      vertex -6.67612 29.8043 2
    endloop
  endfacet
  facet normal -0.951057 0.309016 0
    outer loop
      vertex -7.93586 17.8186 0
      vertex -6.67612 21.6957 2
      vertex -6.67612 21.6957 0
    endloop
  endfacet
  facet normal -0.951057 0.309016 0
    outer loop
      vertex -6.67612 21.6957 2
      vertex -7.93586 17.8186 0
      vertex -7.93586 17.8186 2
    endloop
  endfacet
  facet normal -0.406732 -0.913547 0
    outer loop
      vertex -19.7242 44.2956 0
      vertex -16 42.6375 2
      vertex -19.7242 44.2956 2
    endloop
  endfacet
  facet normal -0.406732 -0.913547 -0
    outer loop
      vertex -16 42.6375 2
      vertex -19.7242 44.2956 0
      vertex -16 42.6375 0
    endloop
  endfacet
  facet normal -0.207914 0.978147 0
    outer loop
      vertex -19.7242 7.2044 0
      vertex -23.7117 6.35682 2
      vertex -19.7242 7.2044 2
    endloop
  endfacet
  facet normal -0.207914 0.978147 0
    outer loop
      vertex -23.7117 6.35682 2
      vertex -19.7242 7.2044 0
      vertex -23.7117 6.35682 0
    endloop
  endfacet
  facet normal 0.207919 -0.978146 0
    outer loop
      vertex -31.7758 44.2956 0
      vertex -27.7883 45.1432 2
      vertex -31.7758 44.2956 2
    endloop
  endfacet
  facet normal 0.207919 -0.978146 0
    outer loop
      vertex -27.7883 45.1432 2
      vertex -31.7758 44.2956 0
      vertex -27.7883 45.1432 0
    endloop
  endfacet
  facet normal -0.994522 0.104527 0
    outer loop
      vertex -6.67612 21.6957 0
      vertex -6.25 25.75 2
      vertex -6.25 25.75 0
    endloop
  endfacet
  facet normal -0.994522 0.104527 0
    outer loop
      vertex -6.25 25.75 2
      vertex -6.67612 21.6957 0
      vertex -6.67612 21.6957 2
    endloop
  endfacet
  facet normal -0.866022 0.500006 0
    outer loop
      vertex -9.97417 14.2882 0
      vertex -7.93586 17.8186 2
      vertex -7.93586 17.8186 0
    endloop
  endfacet
  facet normal -0.866022 0.500006 0
    outer loop
      vertex -7.93586 17.8186 2
      vertex -9.97417 14.2882 0
      vertex -9.97417 14.2882 2
    endloop
  endfacet
  facet normal -0.866022 -0.500006 0
    outer loop
      vertex -7.93586 33.6814 0
      vertex -9.97417 37.2118 2
      vertex -9.97417 37.2118 0
    endloop
  endfacet
  facet normal -0.866022 -0.500006 0
    outer loop
      vertex -9.97417 37.2118 2
      vertex -7.93586 33.6814 0
      vertex -7.93586 33.6814 2
    endloop
  endfacet
  facet normal 0.866023 0.500004 0
    outer loop
      vertex -41.5258 14.2882 2
      vertex -43.5641 17.8186 0
      vertex -43.5641 17.8186 2
    endloop
  endfacet
  facet normal 0.866023 0.500004 0
    outer loop
      vertex -43.5641 17.8186 0
      vertex -41.5258 14.2882 2
      vertex -41.5258 14.2882 0
    endloop
  endfacet
  facet normal 0.587795 -0.80901 0
    outer loop
      vertex -38.798 40.2413 0
      vertex -35.5 42.6375 2
      vertex -38.798 40.2413 2
    endloop
  endfacet
  facet normal 0.587795 -0.80901 0
    outer loop
      vertex -35.5 42.6375 2
      vertex -38.798 40.2413 0
      vertex -35.5 42.6375 0
    endloop
  endfacet
  facet normal -0.587795 -0.80901 0
    outer loop
      vertex -16 42.6375 0
      vertex -12.702 40.2413 2
      vertex -16 42.6375 2
    endloop
  endfacet
  facet normal -0.587795 -0.80901 -0
    outer loop
      vertex -12.702 40.2413 2
      vertex -16 42.6375 0
      vertex -12.702 40.2413 0
    endloop
  endfacet
  facet normal -0.207919 -0.978146 0
    outer loop
      vertex -23.7117 45.1432 0
      vertex -19.7242 44.2956 2
      vertex -23.7117 45.1432 2
    endloop
  endfacet
  facet normal -0.207919 -0.978146 -0
    outer loop
      vertex -19.7242 44.2956 2
      vertex -23.7117 45.1432 0
      vertex -19.7242 44.2956 0
    endloop
  endfacet
  facet normal 0 1 -0
    outer loop
      vertex -23.7117 6.35682 0
      vertex -27.7883 6.35682 2
      vertex -23.7117 6.35682 2
    endloop
  endfacet
  facet normal 0 1 0
    outer loop
      vertex -27.7883 6.35682 2
      vertex -23.7117 6.35682 0
      vertex -27.7883 6.35682 0
    endloop
  endfacet
  facet normal -0.994522 -0.104527 0
    outer loop
      vertex -6.25 25.75 0
      vertex -6.67612 29.8043 2
      vertex -6.67612 29.8043 0
    endloop
  endfacet
  facet normal -0.994522 -0.104527 0
    outer loop
      vertex -6.67612 29.8043 2
      vertex -6.25 25.75 0
      vertex -6.25 25.75 2
    endloop
  endfacet
  facet normal 0 -1 0
    outer loop
      vertex -51.5 -6 -8
      vertex 0 -6 -2
      vertex -51.5 -6 -2
    endloop
  endfacet
  facet normal 0 -1 -0
    outer loop
      vertex 0 -6 -2
      vertex -51.5 -6 -8
      vertex 0 -6 -8
    endloop
  endfacet
  facet normal -0 0 1
    outer loop
      vertex -51.5 -4 -2
      vertex 0 -6 -2
      vertex 0 -4 -2
    endloop
  endfacet
  facet normal 0 0 1
    outer loop
      vertex 0 -6 -2
      vertex -51.5 -4 -2
      vertex -51.5 -6 -2
    endloop
  endfacet
  facet normal -0 0.447214 0.894427
    outer loop
      vertex -51.5 -2 -3
      vertex 0 -4 -2
      vertex 0 -2 -3
    endloop
  endfacet
  facet normal 0 0.447214 0.894427
    outer loop
      vertex 0 -4 -2
      vertex -51.5 -2 -3
      vertex -51.5 -4 -2
    endloop
  endfacet
  facet normal 0 0.447214 -0.894427
    outer loop
      vertex -51.5 -4 -4
      vertex 0 -2 -3
      vertex 0 -4 -4
    endloop
  endfacet
  facet normal 0 0.447214 -0.894427
    outer loop
      vertex 0 -2 -3
      vertex -51.5 -4 -4
      vertex -51.5 -2 -3
    endloop
  endfacet
  facet normal 0 1 -0
    outer loop
      vertex 0 -4 -6
      vertex -51.5 -4 -4
      vertex 0 -4 -4
    endloop
  endfacet
  facet normal 0 1 0
    outer loop
      vertex -51.5 -4 -4
      vertex 0 -4 -6
      vertex -51.5 -4 -6
    endloop
  endfacet
  facet normal -0 0 1
    outer loop
      vertex -51.5 0 -6
      vertex 0 -4 -6
      vertex 0 0 -6
    endloop
  endfacet
  facet normal 0 0 1
    outer loop
      vertex 0 -4 -6
      vertex -51.5 0 -6
      vertex -51.5 -4 -6
    endloop
  endfacet
  facet normal -1 0 0
    outer loop
      vertex -57.5 0 -8
      vertex -57.5 51.5 -2
      vertex -57.5 51.5 -8
    endloop
  endfacet
  facet normal -1 -0 0
    outer loop
      vertex -57.5 51.5 -2
      vertex -57.5 0 -8
      vertex -57.5 0 -2
    endloop
  endfacet
  facet normal -0 0 1
    outer loop
      vertex -57.5 51.5 -2
      vertex -55.5 0 -2
      vertex -55.5 51.5 -2
    endloop
  endfacet
  facet normal 0 0 1
    outer loop
      vertex -55.5 0 -2
      vertex -57.5 51.5 -2
      vertex -57.5 0 -2
    endloop
  endfacet
  facet normal 0.447214 0 0.894427
    outer loop
      vertex -55.5 51.5 -2
      vertex -53.5 0 -3
      vertex -53.5 51.5 -3
    endloop
  endfacet
  facet normal 0.447214 0 0.894427
    outer loop
      vertex -53.5 0 -3
      vertex -55.5 51.5 -2
      vertex -55.5 0 -2
    endloop
  endfacet
  facet normal 0.447214 0 -0.894427
    outer loop
      vertex -55.5 0 -4
      vertex -53.5 51.5 -3
      vertex -53.5 0 -3
    endloop
  endfacet
  facet normal 0.447214 0 -0.894427
    outer loop
      vertex -53.5 51.5 -3
      vertex -55.5 0 -4
      vertex -55.5 51.5 -4
    endloop
  endfacet
  facet normal 1 -0 0
    outer loop
      vertex -55.5 0 -4
      vertex -55.5 51.5 -6
      vertex -55.5 51.5 -4
    endloop
  endfacet
  facet normal 1 0 0
    outer loop
      vertex -55.5 51.5 -6
      vertex -55.5 0 -4
      vertex -55.5 0 -6
    endloop
  endfacet
  facet normal -0 0 1
    outer loop
      vertex -55.5 51.5 -6
      vertex -51.5 0 -6
      vertex -51.5 51.5 -6
    endloop
  endfacet
  facet normal 0 0 1
    outer loop
      vertex -51.5 0 -6
      vertex -55.5 51.5 -6
      vertex -55.5 0 -6
    endloop
  endfacet
  facet normal 0 0 -1
    outer loop
      vertex -51.5 53.9 -5.59999
      vertex 0 57.1 -5.59999
      vertex 0 53.9 -5.59999
    endloop
  endfacet
  facet normal -0 0 -1
    outer loop
      vertex 0 57.1 -5.59999
      vertex -51.5 53.9 -5.59999
      vertex -51.5 57.1 -5.59999
    endloop
  endfacet
  facet normal 0 -1 0
    outer loop
      vertex -51.5 53.9 -5.59999
      vertex 0 53.9 -4.39999
      vertex -51.5 53.9 -4.39999
    endloop
  endfacet
  facet normal 0 -1 -0
    outer loop
      vertex 0 53.9 -4.39999
      vertex -51.5 53.9 -5.59999
      vertex 0 53.9 -5.59999
    endloop
  endfacet
  facet normal 0 -0.447214 0.894427
    outer loop
      vertex -51.5 55.9 -3.39999
      vertex 0 53.9 -4.39999
      vertex 0 55.9 -3.39999
    endloop
  endfacet
  facet normal 0 -0.447214 0.894427
    outer loop
      vertex 0 53.9 -4.39999
      vertex -51.5 55.9 -3.39999
      vertex -51.5 53.9 -4.39999
    endloop
  endfacet
  facet normal 0 -1 0
    outer loop
      vertex -51.5 55.9 -3.39999
      vertex 0 55.9 -2.59999
      vertex -51.5 55.9 -2.59999
    endloop
  endfacet
  facet normal 0 -1 -0
    outer loop
      vertex 0 55.9 -2.59999
      vertex -51.5 55.9 -3.39999
      vertex 0 55.9 -3.39999
    endloop
  endfacet
  facet normal 0 -0.447214 -0.894427
    outer loop
      vertex -51.5 53.9 -1.59999
      vertex 0 55.9 -2.59999
      vertex 0 53.9 -1.59999
    endloop
  endfacet
  facet normal -0 -0.447214 -0.894427
    outer loop
      vertex 0 55.9 -2.59999
      vertex -51.5 53.9 -1.59999
      vertex -51.5 55.9 -2.59999
    endloop
  endfacet
  facet normal 0 0 -1
    outer loop
      vertex -51.5 51.5 -1.59999
      vertex 0 53.9 -1.59999
      vertex 0 51.5 -1.59999
    endloop
  endfacet
  facet normal -0 0 -1
    outer loop
      vertex 0 53.9 -1.59999
      vertex -51.5 51.5 -1.59999
      vertex -51.5 53.9 -1.59999
    endloop
  endfacet
  facet normal 0 1 -0
    outer loop
      vertex 0 57.1 -5.59999
      vertex -51.5 57.1 0
      vertex 0 57.1 0
    endloop
  endfacet
  facet normal 0 1 0
    outer loop
      vertex -51.5 57.1 0
      vertex 0 57.1 -5.59999
      vertex -51.5 57.1 -5.59999
    endloop
  endfacet
  facet normal 0 1 0
    outer loop
      vertex 5.59999 51.5 0
      vertex 2.39999 51.5 -1.59999
      vertex 0 51.5 0
    endloop
  endfacet
  facet normal 0 1 0
    outer loop
      vertex 5.59999 51.5 0
      vertex 4.39999 51.5 -2.59999
      vertex 2.39999 51.5 -1.59999
    endloop
  endfacet
  facet normal 0 1 -0
    outer loop
      vertex 5.59999 51.5 -5.59999
      vertex 4.39999 51.5 -2.59999
      vertex 5.59999 51.5 0
    endloop
  endfacet
  facet normal 0 1 0
    outer loop
      vertex 4.39999 51.5 -2.59999
      vertex 5.59999 51.5 -5.59999
      vertex 4.39999 51.5 -3.39999
    endloop
  endfacet
  facet normal 0 1 0
    outer loop
      vertex 2.39999 51.5 -5.59999
      vertex 4.39999 51.5 -3.39999
      vertex 5.59999 51.5 -5.59999
    endloop
  endfacet
  facet normal 0 1 0
    outer loop
      vertex 4.39999 51.5 -3.39999
      vertex 2.39999 51.5 -5.59999
      vertex 2.39999 51.5 -4.39999
    endloop
  endfacet
  facet normal 0 1 0
    outer loop
      vertex 0 51.5 0
      vertex 2.39999 51.5 -1.59999
      vertex 0 51.5 -1.59999
    endloop
  endfacet
  facet normal 0 0 -1
    outer loop
      vertex 2.39999 0 -5.59999
      vertex 5.59999 51.5 -5.59999
      vertex 5.59999 0 -5.59999
    endloop
  endfacet
  facet normal -0 0 -1
    outer loop
      vertex 5.59999 51.5 -5.59999
      vertex 2.39999 0 -5.59999
      vertex 2.39999 51.5 -5.59999
    endloop
  endfacet
  facet normal -1 0 0
    outer loop
      vertex 2.39999 0 -5.59999
      vertex 2.39999 51.5 -4.39999
      vertex 2.39999 51.5 -5.59999
    endloop
  endfacet
  facet normal -1 -0 0
    outer loop
      vertex 2.39999 51.5 -4.39999
      vertex 2.39999 0 -5.59999
      vertex 2.39999 0 -4.39999
    endloop
  endfacet
  facet normal -0.447214 0 0.894427
    outer loop
      vertex 2.39999 51.5 -4.39999
      vertex 4.39999 0 -3.39999
      vertex 4.39999 51.5 -3.39999
    endloop
  endfacet
  facet normal -0.447214 0 0.894427
    outer loop
      vertex 4.39999 0 -3.39999
      vertex 2.39999 51.5 -4.39999
      vertex 2.39999 0 -4.39999
    endloop
  endfacet
  facet normal -1 0 0
    outer loop
      vertex 4.39999 0 -3.39999
      vertex 4.39999 51.5 -2.59999
      vertex 4.39999 51.5 -3.39999
    endloop
  endfacet
  facet normal -1 -0 0
    outer loop
      vertex 4.39999 51.5 -2.59999
      vertex 4.39999 0 -3.39999
      vertex 4.39999 0 -2.59999
    endloop
  endfacet
  facet normal -0.447214 0 -0.894427
    outer loop
      vertex 2.39999 0 -1.59999
      vertex 4.39999 51.5 -2.59999
      vertex 4.39999 0 -2.59999
    endloop
  endfacet
  facet normal -0.447214 0 -0.894427
    outer loop
      vertex 4.39999 51.5 -2.59999
      vertex 2.39999 0 -1.59999
      vertex 2.39999 51.5 -1.59999
    endloop
  endfacet
  facet normal 0 0 -1
    outer loop
      vertex 0 0 -1.59999
      vertex 2.39999 51.5 -1.59999
      vertex 2.39999 0 -1.59999
    endloop
  endfacet
  facet normal -0 0 -1
    outer loop
      vertex 2.39999 51.5 -1.59999
      vertex 0 0 -1.59999
      vertex 0 51.5 -1.59999
    endloop
  endfacet
  facet normal 1 -0 0
    outer loop
      vertex 5.59999 0 0
      vertex 5.59999 51.5 -5.59999
      vertex 5.59999 51.5 0
    endloop
  endfacet
  facet normal 1 0 0
    outer loop
      vertex 5.59999 51.5 -5.59999
      vertex 5.59999 0 0
      vertex 5.59999 0 -5.59999
    endloop
  endfacet
endsolid OpenSCAD_Model
